#N canvas 545 23 1185 944 12;
#X declare -lib Gem;
#X obj 92 41 declare -lib Gem;
#X msg 99 69 create \, 1;
#X obj 173 160 gemwin;
#X msg 285 68 0 \, destroy;
#X msg 176 70 dimen 800 900;
#X obj 97 302 gemhead;
#X obj 95 485 rotateXYZ;
#X obj 97 534 colorRGB;
#X obj 94 610 teapot;
#X obj 98 398 translateXYZ -7 12 -10;
#N canvas 4 76 1920 944 DX11 0;
#X obj 411 487 outlet;
#X obj 405 175 bng 19 250 50 0 empty empty empty 0 -10 0 12 #fcfcfc #000000 #000000;
#X obj 483 219 + 0.1;
#X obj 413 312 <=;
#X floatatom 413 336 5 0 0 0 - - - 0;
#X obj 491 283 t b f;
#X floatatom 588 259 5 0 0 0 - - - 0;
#X obj 407 95 tgl 19 0 empty empty empty 0 -10 0 12 #fcfcfc #000000 #000000 0 1;
#X floatatom 390 265 5 0 0 0 - - - 0;
#X obj 332 133 sel 0;
#X floatatom 356 186 5 0 0 0 - - - 0;
#X floatatom 414 459 5 0 0 0 - - - 0;
#X obj 398 220 f;
#X obj 412 376 sel 1;
#X obj 406 138 metro 5;
#X obj 417 422 f;
#X floatatom 335 419 5 0 0 0 - - - 0;
#X obj 351 15 inlet;
#X floatatom 311 325 5 0 0 0 - - - 0;
#X obj 467 416 + 0.1;
#X msg 314 241 -7;
#X msg 590 228 14;
#X obj 437 14 r pattern00;
#X obj 561 376 sel 0;
#X obj 568 429 s envoie00;
#X obj 843 518 outlet;
#X obj 837 206 bng 19 250 50 0 empty empty empty 0 -10 0 12 #fcfcfc #000000 #000000;
#X obj 915 250 + 0.1;
#X obj 845 343 <=;
#X floatatom 845 367 5 0 0 0 - - - 0;
#X obj 923 314 t b f;
#X floatatom 1020 290 5 0 0 0 - - - 0;
#X obj 839 126 tgl 19 0 empty empty empty 0 -10 0 12 #fcfcfc #000000 #000000 0 1;
#X floatatom 822 296 5 0 0 0 - - - 0;
#X obj 764 164 sel 0;
#X floatatom 788 217 5 0 0 0 - - - 0;
#X floatatom 846 490 5 0 0 0 - - - 0;
#X obj 830 251 f;
#X obj 844 407 sel 1;
#X obj 838 169 metro 5;
#X obj 849 453 f;
#X floatatom 767 450 5 0 0 0 - - - 0;
#X floatatom 743 356 5 0 0 0 - - - 0;
#X obj 899 447 + 0.1;
#X msg 746 272 -7;
#X msg 1022 259 14;
#X obj 993 407 sel 0;
#X obj 1090 464 s envoie01;
#X obj 790 22 inlet;
#X obj 876 21 r pattern01;
#X obj 1293 518 outlet;
#X obj 1287 206 bng 19 250 50 0 empty empty empty 0 -10 0 12 #fcfcfc #000000 #000000;
#X obj 1365 250 + 0.1;
#X obj 1295 343 <=;
#X floatatom 1295 367 5 0 0 0 - - - 0;
#X obj 1373 314 t b f;
#X floatatom 1470 290 5 0 0 0 - - - 0;
#X obj 1289 126 tgl 19 0 empty empty empty 0 -10 0 12 #fcfcfc #000000 #000000 0 1;
#X floatatom 1272 296 5 0 0 0 - - - 0;
#X obj 1214 164 sel 0;
#X floatatom 1238 217 5 0 0 0 - - - 0;
#X floatatom 1296 490 5 0 0 0 - - - 0;
#X obj 1280 251 f;
#X obj 1294 407 sel 1;
#X obj 1288 169 metro 5;
#X obj 1299 453 f;
#X floatatom 1217 450 5 0 0 0 - - - 0;
#X floatatom 1193 356 5 0 0 0 - - - 0;
#X obj 1349 447 + 0.1;
#X msg 1196 272 -7;
#X msg 1472 259 14;
#X obj 1240 22 inlet;
#X obj 1326 21 r pattern03;
#X connect 1 0 12 0;
#X connect 2 0 12 1;
#X connect 3 0 4 0;
#X connect 4 0 13 0;
#X connect 4 0 23 0;
#X connect 5 1 3 1;
#X connect 6 0 5 0;
#X connect 7 0 9 0;
#X connect 7 0 14 0;
#X connect 7 0 21 0;
#X connect 8 0 3 0;
#X connect 9 0 10 0;
#X connect 9 0 20 0;
#X connect 10 0 8 0;
#X connect 10 0 12 1;
#X connect 11 0 0 0;
#X connect 12 0 2 0;
#X connect 12 0 8 0;
#X connect 13 0 15 0;
#X connect 14 0 1 0;
#X connect 15 0 11 0;
#X connect 15 0 19 0;
#X connect 16 0 11 0;
#X connect 17 0 7 0;
#X connect 18 0 15 1;
#X connect 19 0 15 1;
#X connect 20 0 18 0;
#X connect 20 0 16 0;
#X connect 21 0 6 0;
#X connect 22 0 7 0;
#X connect 23 0 24 0;
#X connect 26 0 37 0;
#X connect 27 0 37 1;
#X connect 28 0 29 0;
#X connect 29 0 38 0;
#X connect 29 0 46 0;
#X connect 30 1 28 1;
#X connect 31 0 30 0;
#X connect 32 0 34 0;
#X connect 32 0 39 0;
#X connect 32 0 45 0;
#X connect 33 0 28 0;
#X connect 34 0 35 0;
#X connect 34 0 44 0;
#X connect 35 0 33 0;
#X connect 35 0 37 1;
#X connect 36 0 25 0;
#X connect 37 0 27 0;
#X connect 37 0 33 0;
#X connect 38 0 40 0;
#X connect 39 0 26 0;
#X connect 40 0 36 0;
#X connect 40 0 43 0;
#X connect 41 0 36 0;
#X connect 42 0 40 1;
#X connect 43 0 40 1;
#X connect 44 0 42 0;
#X connect 44 0 41 0;
#X connect 45 0 31 0;
#X connect 46 0 47 0;
#X connect 48 0 32 0;
#X connect 49 0 32 0;
#X connect 51 0 62 0;
#X connect 52 0 62 1;
#X connect 53 0 54 0;
#X connect 54 0 63 0;
#X connect 55 1 53 1;
#X connect 56 0 55 0;
#X connect 57 0 59 0;
#X connect 57 0 64 0;
#X connect 57 0 70 0;
#X connect 58 0 53 0;
#X connect 59 0 60 0;
#X connect 59 0 69 0;
#X connect 60 0 58 0;
#X connect 60 0 62 1;
#X connect 61 0 50 0;
#X connect 62 0 52 0;
#X connect 62 0 58 0;
#X connect 63 0 65 0;
#X connect 64 0 51 0;
#X connect 65 0 61 0;
#X connect 65 0 68 0;
#X connect 66 0 61 0;
#X connect 67 0 65 1;
#X connect 68 0 65 1;
#X connect 69 0 67 0;
#X connect 69 0 66 0;
#X connect 70 0 56 0;
#X connect 71 0 57 0;
#X connect 72 0 57 0;
#X restore 157 302 pd DX11;
#N canvas 4 76 1920 944 DY11 0;
#X obj 411 487 outlet;
#X obj 405 175 bng 19 250 50 0 empty empty empty 0 -10 0 12 #fcfcfc #000000 #000000;
#X obj 483 219 + 0.1;
#X obj 413 312 <=;
#X floatatom 413 336 5 0 0 0 - - - 0;
#X obj 491 283 t b f;
#X floatatom 588 259 5 0 0 0 - - - 0;
#X obj 407 95 tgl 19 0 empty empty empty 0 -10 0 12 #fcfcfc #000000 #000000 0 1;
#X floatatom 390 265 5 0 0 0 - - - 0;
#X obj 332 133 sel 0;
#X floatatom 356 186 5 0 0 0 - - - 0;
#X floatatom 414 459 5 0 0 0 - - - 0;
#X obj 398 220 f;
#X floatatom 335 419 5 0 0 0 - - - 0;
#X obj 467 416 - 0.1;
#X obj 412 376 sel 1;
#X obj 406 138 metro 5;
#X obj 417 422 f;
#X floatatom 311 325 5 0 0 0 - - - 0;
#X obj 362 19 inlet;
#X msg 320 238 12;
#X msg 590 228 6;
#X obj 453 21 r pattern00;
#X obj 561 376 sel 0;
#X obj 1203 477 outlet;
#X obj 1197 165 bng 19 250 50 0 empty empty empty 0 -10 0 12 #fcfcfc #000000 #000000;
#X obj 1275 209 + 0.1;
#X obj 1205 302 <=;
#X floatatom 1205 326 5 0 0 0 - - - 0;
#X obj 1283 273 t b f;
#X floatatom 1380 249 5 0 0 0 - - - 0;
#X obj 1199 85 tgl 19 0 empty empty empty 0 -10 0 12 #fcfcfc #000000 #000000 0 1;
#X floatatom 1182 255 5 0 0 0 - - - 0;
#X obj 1124 123 sel 0;
#X floatatom 1148 176 5 0 0 0 - - - 0;
#X floatatom 1206 449 5 0 0 0 - - - 0;
#X obj 1190 210 f;
#X floatatom 1127 409 5 0 0 0 - - - 0;
#X obj 1259 406 - 0.1;
#X obj 1204 366 sel 1;
#X obj 1198 128 metro 5;
#X obj 1209 412 f;
#X floatatom 1103 315 5 0 0 0 - - - 0;
#X msg 1112 228 12;
#X msg 1382 218 6;
#X obj 1353 366 sel 0;
#X obj 1450 423 s envoie02;
#X obj 1240 19 inlet;
#X obj 1331 21 r pattern02;
#X connect 1 0 12 0;
#X connect 2 0 12 1;
#X connect 3 0 4 0;
#X connect 4 0 15 0;
#X connect 4 0 23 0;
#X connect 5 1 3 1;
#X connect 6 0 5 0;
#X connect 7 0 9 0;
#X connect 7 0 16 0;
#X connect 7 0 21 0;
#X connect 8 0 3 0;
#X connect 9 0 10 0;
#X connect 9 0 20 0;
#X connect 10 0 8 0;
#X connect 10 0 12 1;
#X connect 11 0 0 0;
#X connect 12 0 2 0;
#X connect 12 0 8 0;
#X connect 13 0 11 0;
#X connect 14 0 17 1;
#X connect 15 0 17 0;
#X connect 16 0 1 0;
#X connect 17 0 14 0;
#X connect 17 0 11 0;
#X connect 18 0 17 1;
#X connect 19 0 7 0;
#X connect 20 0 18 0;
#X connect 20 0 13 0;
#X connect 21 0 6 0;
#X connect 22 0 7 0;
#X connect 25 0 36 0;
#X connect 26 0 36 1;
#X connect 27 0 28 0;
#X connect 28 0 39 0;
#X connect 28 0 45 0;
#X connect 29 1 27 1;
#X connect 30 0 29 0;
#X connect 31 0 33 0;
#X connect 31 0 40 0;
#X connect 31 0 44 0;
#X connect 32 0 27 0;
#X connect 33 0 34 0;
#X connect 33 0 43 0;
#X connect 34 0 32 0;
#X connect 34 0 36 1;
#X connect 35 0 24 0;
#X connect 36 0 26 0;
#X connect 36 0 32 0;
#X connect 37 0 35 0;
#X connect 38 0 41 1;
#X connect 39 0 41 0;
#X connect 40 0 25 0;
#X connect 41 0 38 0;
#X connect 41 0 35 0;
#X connect 42 0 41 1;
#X connect 43 0 42 0;
#X connect 43 0 37 0;
#X connect 44 0 30 0;
#X connect 45 0 46 0;
#X connect 47 0 31 0;
#X connect 48 0 31 0;
#X restore 213 300 pd DY11;
#X obj 988 53 tgl 30 0 empty empty empty 0 -10 0 12 #c6ffc7 #000000 #000000 0 1;
#X obj 297 303 gemhead;
#X obj 295 486 rotateXYZ;
#X obj 297 535 colorRGB;
#X obj 294 611 teapot;
#X obj 298 399 translateXYZ 7 12 -10;
#N canvas 970 122 1920 944 DX12 0;
#X obj 411 487 outlet;
#X obj 405 175 bng 19 250 50 0 empty empty empty 0 -10 0 12 #fcfcfc #000000 #000000;
#X floatatom 413 336 5 0 0 0 - - - 0;
#X obj 491 283 t b f;
#X floatatom 588 259 5 0 0 0 - - - 0;
#X obj 407 95 tgl 19 0 empty empty empty 0 -10 0 12 #fcfcfc #000000 #000000 0 1;
#X floatatom 390 265 5 0 0 0 - - - 0;
#X obj 332 133 sel 0;
#X floatatom 356 186 5 0 0 0 - - - 0;
#X floatatom 414 459 5 0 0 0 - - - 0;
#X obj 398 220 f;
#X obj 412 376 sel 1;
#X obj 406 138 metro 5;
#X obj 417 422 f;
#X floatatom 335 419 5 0 0 0 - - - 0;
#X obj 402 50 inlet;
#X floatatom 311 325 5 0 0 0 - - - 0;
#X msg 309 241 7;
#X obj 469 415 - 0.1;
#X obj 483 219 - 0.1;
#X obj 413 312 >=;
#X msg 590 228 -14;
#X obj 463 48 r pattern00;
#X obj 845 500 outlet;
#X obj 839 188 bng 19 250 50 0 empty empty empty 0 -10 0 12 #fcfcfc #000000 #000000;
#X floatatom 847 349 5 0 0 0 - - - 0;
#X obj 925 296 t b f;
#X floatatom 1022 272 5 0 0 0 - - - 0;
#X obj 841 108 tgl 19 0 empty empty empty 0 -10 0 12 #fcfcfc #000000 #000000 0 1;
#X floatatom 824 278 5 0 0 0 - - - 0;
#X obj 766 146 sel 0;
#X floatatom 790 199 5 0 0 0 - - - 0;
#X floatatom 848 472 5 0 0 0 - - - 0;
#X obj 832 233 f;
#X obj 846 389 sel 1;
#X obj 840 151 metro 5;
#X obj 851 435 f;
#X floatatom 769 432 5 0 0 0 - - - 0;
#X obj 836 63 inlet;
#X floatatom 745 338 5 0 0 0 - - - 0;
#X msg 743 254 7;
#X obj 903 428 - 0.1;
#X obj 917 232 - 0.1;
#X obj 847 325 >=;
#X msg 1024 241 -14;
#X obj 916 60 r pattern01;
#X obj 1246 507 outlet;
#X obj 1240 195 bng 19 250 50 0 empty empty empty 0 -10 0 12 #fcfcfc #000000 #000000;
#X floatatom 1248 356 5 0 0 0 - - - 0;
#X obj 1326 303 t b f;
#X floatatom 1423 279 5 0 0 0 - - - 0;
#X obj 1242 115 tgl 19 0 empty empty empty 0 -10 0 12 #fcfcfc #000000 #000000 0 1;
#X floatatom 1225 285 5 0 0 0 - - - 0;
#X obj 1167 153 sel 0;
#X floatatom 1191 206 5 0 0 0 - - - 0;
#X floatatom 1249 479 5 0 0 0 - - - 0;
#X obj 1233 240 f;
#X obj 1247 396 sel 1;
#X obj 1241 158 metro 5;
#X obj 1252 442 f;
#X floatatom 1170 439 5 0 0 0 - - - 0;
#X obj 1237 70 inlet;
#X floatatom 1146 345 5 0 0 0 - - - 0;
#X msg 1144 261 7;
#X obj 1304 435 - 0.1;
#X obj 1318 239 - 0.1;
#X obj 1248 332 >=;
#X msg 1425 248 -14;
#X obj 1317 67 r pattern03;
#X connect 1 0 10 0;
#X connect 2 0 11 0;
#X connect 3 1 20 1;
#X connect 4 0 3 0;
#X connect 5 0 7 0;
#X connect 5 0 12 0;
#X connect 5 0 21 0;
#X connect 6 0 20 0;
#X connect 7 0 8 0;
#X connect 7 0 17 0;
#X connect 8 0 6 0;
#X connect 8 0 10 1;
#X connect 9 0 0 0;
#X connect 10 0 6 0;
#X connect 10 0 19 0;
#X connect 11 0 13 0;
#X connect 12 0 1 0;
#X connect 13 0 9 0;
#X connect 13 0 18 0;
#X connect 14 0 9 0;
#X connect 15 0 5 0;
#X connect 16 0 13 1;
#X connect 17 0 16 0;
#X connect 17 0 14 0;
#X connect 18 0 13 1;
#X connect 19 0 10 1;
#X connect 20 0 2 0;
#X connect 21 0 4 0;
#X connect 22 0 5 0;
#X connect 24 0 33 0;
#X connect 25 0 34 0;
#X connect 26 1 43 1;
#X connect 27 0 26 0;
#X connect 28 0 30 0;
#X connect 28 0 35 0;
#X connect 28 0 44 0;
#X connect 29 0 43 0;
#X connect 30 0 31 0;
#X connect 30 0 40 0;
#X connect 31 0 29 0;
#X connect 31 0 33 1;
#X connect 32 0 23 0;
#X connect 33 0 29 0;
#X connect 33 0 42 0;
#X connect 34 0 36 0;
#X connect 35 0 24 0;
#X connect 36 0 32 0;
#X connect 36 0 41 0;
#X connect 37 0 32 0;
#X connect 38 0 28 0;
#X connect 39 0 36 1;
#X connect 40 0 39 0;
#X connect 40 0 37 0;
#X connect 41 0 36 1;
#X connect 42 0 33 1;
#X connect 43 0 25 0;
#X connect 44 0 27 0;
#X connect 45 0 28 0;
#X connect 47 0 56 0;
#X connect 48 0 57 0;
#X connect 49 1 66 1;
#X connect 50 0 49 0;
#X connect 51 0 53 0;
#X connect 51 0 58 0;
#X connect 51 0 67 0;
#X connect 52 0 66 0;
#X connect 53 0 54 0;
#X connect 53 0 63 0;
#X connect 54 0 52 0;
#X connect 54 0 56 1;
#X connect 55 0 46 0;
#X connect 56 0 52 0;
#X connect 56 0 65 0;
#X connect 57 0 59 0;
#X connect 58 0 47 0;
#X connect 59 0 55 0;
#X connect 59 0 64 0;
#X connect 60 0 55 0;
#X connect 61 0 51 0;
#X connect 62 0 59 1;
#X connect 63 0 62 0;
#X connect 63 0 60 0;
#X connect 64 0 59 1;
#X connect 65 0 56 1;
#X connect 66 0 48 0;
#X connect 67 0 50 0;
#X connect 68 0 51 0;
#X restore 357 303 pd DX12;
#N canvas 693 215 601 712 DY12 0;
#X obj 411 487 outlet;
#X obj 405 175 bng 19 250 50 0 empty empty empty 0 -10 0 12 #fcfcfc #000000 #000000;
#X obj 483 219 + 0.1;
#X obj 413 312 <=;
#X floatatom 413 336 5 0 0 0 - - - 0;
#X obj 491 283 t b f;
#X floatatom 588 259 5 0 0 0 - - - 0;
#X obj 407 95 tgl 19 0 empty empty empty 0 -10 0 12 #fcfcfc #000000 #000000 0 1;
#X floatatom 390 265 5 0 0 0 - - - 0;
#X obj 332 133 sel 0;
#X floatatom 356 186 5 0 0 0 - - - 0;
#X floatatom 414 459 5 0 0 0 - - - 0;
#X obj 398 220 f;
#X floatatom 335 419 5 0 0 0 - - - 0;
#X obj 467 416 - 0.1;
#X obj 412 376 sel 1;
#X obj 406 138 metro 5;
#X obj 417 422 f;
#X floatatom 311 325 5 0 0 0 - - - 0;
#X obj 413 58 inlet;
#X msg 317 250 12;
#X msg 590 228 6;
#X obj 800 497 outlet;
#X obj 794 185 bng 19 250 50 0 empty empty empty 0 -10 0 12 #fcfcfc #000000 #000000;
#X obj 872 229 + 0.1;
#X obj 802 322 <=;
#X floatatom 802 346 5 0 0 0 - - - 0;
#X obj 880 293 t b f;
#X floatatom 977 269 5 0 0 0 - - - 0;
#X obj 796 105 tgl 19 0 empty empty empty 0 -10 0 12 #fcfcfc #000000 #000000 0 1;
#X floatatom 779 275 5 0 0 0 - - - 0;
#X obj 721 143 sel 0;
#X floatatom 745 196 5 0 0 0 - - - 0;
#X floatatom 803 469 5 0 0 0 - - - 0;
#X obj 787 230 f;
#X floatatom 724 429 5 0 0 0 - - - 0;
#X obj 856 426 - 0.1;
#X obj 801 386 sel 1;
#X obj 795 148 metro 5;
#X obj 806 432 f;
#X floatatom 700 335 5 0 0 0 - - - 0;
#X obj 802 68 inlet;
#X msg 706 260 12;
#X msg 979 238 6;
#X obj 474 57 r pattern00;
#X obj 864 68 r pattern02;
#X connect 1 0 12 0;
#X connect 2 0 12 1;
#X connect 3 0 4 0;
#X connect 4 0 15 0;
#X connect 5 1 3 1;
#X connect 6 0 5 0;
#X connect 7 0 9 0;
#X connect 7 0 16 0;
#X connect 7 0 21 0;
#X connect 8 0 3 0;
#X connect 9 0 10 0;
#X connect 9 0 20 0;
#X connect 10 0 8 0;
#X connect 10 0 12 1;
#X connect 11 0 0 0;
#X connect 12 0 2 0;
#X connect 12 0 8 0;
#X connect 13 0 11 0;
#X connect 14 0 17 1;
#X connect 15 0 17 0;
#X connect 16 0 1 0;
#X connect 17 0 14 0;
#X connect 17 0 11 0;
#X connect 18 0 17 1;
#X connect 19 0 7 0;
#X connect 20 0 18 0;
#X connect 20 0 13 0;
#X connect 21 0 6 0;
#X connect 23 0 34 0;
#X connect 24 0 34 1;
#X connect 25 0 26 0;
#X connect 26 0 37 0;
#X connect 27 1 25 1;
#X connect 28 0 27 0;
#X connect 29 0 31 0;
#X connect 29 0 38 0;
#X connect 29 0 43 0;
#X connect 30 0 25 0;
#X connect 31 0 32 0;
#X connect 31 0 42 0;
#X connect 32 0 30 0;
#X connect 32 0 34 1;
#X connect 33 0 22 0;
#X connect 34 0 24 0;
#X connect 34 0 30 0;
#X connect 35 0 33 0;
#X connect 36 0 39 1;
#X connect 37 0 39 0;
#X connect 38 0 23 0;
#X connect 39 0 36 0;
#X connect 39 0 33 0;
#X connect 40 0 39 1;
#X connect 41 0 29 0;
#X connect 42 0 40 0;
#X connect 42 0 35 0;
#X connect 43 0 28 0;
#X connect 44 0 7 0;
#X connect 45 0 29 0;
#X restore 413 301 pd DY12;
#X obj 685 308 gemhead;
#X obj 686 404 translateXYZ 7 6 -10;
#X obj 494 308 gemhead;
#N canvas 1288 198 1920 944 DY13 0;
#X obj 411 487 outlet;
#X obj 405 175 bng 19 250 50 0 empty empty empty 0 -10 0 12 #fcfcfc #000000 #000000;
#X obj 483 219 + 0.1;
#X obj 413 312 <=;
#X floatatom 413 336 5 0 0 0 - - - 0;
#X obj 491 283 t b f;
#X floatatom 588 259 5 0 0 0 - - - 0;
#X obj 407 95 tgl 19 0 empty empty empty 0 -10 0 12 #fcfcfc #000000 #000000 0 1;
#X floatatom 390 265 5 0 0 0 - - - 0;
#X obj 332 133 sel 0;
#X floatatom 356 186 5 0 0 0 - - - 0;
#X floatatom 414 459 5 0 0 0 - - - 0;
#X obj 398 220 f;
#X floatatom 335 419 5 0 0 0 - - - 0;
#X obj 412 376 sel 1;
#X obj 406 138 metro 5;
#X obj 417 422 f;
#X floatatom 311 325 5 0 0 0 - - - 0;
#X obj 413 58 inlet;
#X msg 590 228 6;
#X msg 317 250 6;
#X obj 467 416 + 0.1;
#X obj 811 498 outlet;
#X obj 805 186 bng 19 250 50 0 empty empty empty 0 -10 0 12 #fcfcfc #000000 #000000;
#X obj 883 230 + 0.1;
#X obj 813 323 <=;
#X floatatom 813 347 5 0 0 0 - - - 0;
#X obj 891 294 t b f;
#X floatatom 988 270 5 0 0 0 - - - 0;
#X obj 807 106 tgl 19 0 empty empty empty 0 -10 0 12 #fcfcfc #000000 #000000 0 1;
#X floatatom 790 276 5 0 0 0 - - - 0;
#X obj 732 144 sel 0;
#X floatatom 756 197 5 0 0 0 - - - 0;
#X floatatom 814 470 5 0 0 0 - - - 0;
#X obj 798 231 f;
#X floatatom 735 430 5 0 0 0 - - - 0;
#X obj 812 387 sel 1;
#X obj 806 149 metro 5;
#X obj 817 433 f;
#X floatatom 711 336 5 0 0 0 - - - 0;
#X obj 813 69 inlet;
#X msg 990 239 6;
#X msg 717 261 6;
#X obj 867 427 + 0.1;
#X obj 479 61 r pattern00;
#X obj 879 68 r pattern02;
#X obj 1201 503 outlet;
#X obj 1195 191 bng 19 250 50 0 empty empty empty 0 -10 0 12 #fcfcfc #000000 #000000;
#X obj 1273 235 + 0.1;
#X obj 1203 328 <=;
#X floatatom 1203 352 5 0 0 0 - - - 0;
#X obj 1281 299 t b f;
#X floatatom 1378 275 5 0 0 0 - - - 0;
#X obj 1197 111 tgl 19 0 empty empty empty 0 -10 0 12 #fcfcfc #000000 #000000 0 1;
#X floatatom 1180 281 5 0 0 0 - - - 0;
#X obj 1122 149 sel 0;
#X floatatom 1146 202 5 0 0 0 - - - 0;
#X floatatom 1204 475 5 0 0 0 - - - 0;
#X obj 1188 236 f;
#X floatatom 1125 435 5 0 0 0 - - - 0;
#X obj 1202 392 sel 1;
#X obj 1196 154 metro 5;
#X obj 1207 438 f;
#X floatatom 1101 341 5 0 0 0 - - - 0;
#X obj 1203 74 inlet;
#X msg 1107 266 6;
#X obj 1269 73 r pattern03;
#X obj 1469 400 sel 0;
#X obj 1469 424 s envoie03;
#X obj 1257 432 - 0.1;
#X msg 1380 244 12;
#X connect 1 0 12 0;
#X connect 2 0 12 1;
#X connect 3 0 4 0;
#X connect 4 0 14 0;
#X connect 5 1 3 1;
#X connect 6 0 5 0;
#X connect 7 0 9 0;
#X connect 7 0 15 0;
#X connect 7 0 19 0;
#X connect 8 0 3 0;
#X connect 9 0 10 0;
#X connect 9 0 20 0;
#X connect 10 0 8 0;
#X connect 10 0 12 1;
#X connect 11 0 0 0;
#X connect 12 0 2 0;
#X connect 12 0 8 0;
#X connect 13 0 11 0;
#X connect 14 0 16 0;
#X connect 15 0 1 0;
#X connect 16 0 11 0;
#X connect 16 0 21 0;
#X connect 17 0 16 1;
#X connect 18 0 7 0;
#X connect 19 0 6 0;
#X connect 20 0 17 0;
#X connect 20 0 13 0;
#X connect 21 0 16 1;
#X connect 23 0 34 0;
#X connect 24 0 34 1;
#X connect 25 0 26 0;
#X connect 26 0 36 0;
#X connect 27 1 25 1;
#X connect 28 0 27 0;
#X connect 29 0 31 0;
#X connect 29 0 37 0;
#X connect 29 0 41 0;
#X connect 30 0 25 0;
#X connect 31 0 32 0;
#X connect 31 0 42 0;
#X connect 32 0 30 0;
#X connect 32 0 34 1;
#X connect 33 0 22 0;
#X connect 34 0 24 0;
#X connect 34 0 30 0;
#X connect 35 0 33 0;
#X connect 36 0 38 0;
#X connect 37 0 23 0;
#X connect 38 0 33 0;
#X connect 38 0 43 0;
#X connect 39 0 38 1;
#X connect 40 0 29 0;
#X connect 41 0 28 0;
#X connect 42 0 39 0;
#X connect 42 0 35 0;
#X connect 43 0 38 1;
#X connect 44 0 7 0;
#X connect 45 0 29 0;
#X connect 47 0 58 0;
#X connect 48 0 58 1;
#X connect 49 0 50 0;
#X connect 50 0 60 0;
#X connect 50 0 67 0;
#X connect 51 1 49 1;
#X connect 52 0 51 0;
#X connect 53 0 55 0;
#X connect 53 0 61 0;
#X connect 53 0 70 0;
#X connect 54 0 49 0;
#X connect 55 0 56 0;
#X connect 55 0 65 0;
#X connect 56 0 54 0;
#X connect 56 0 58 1;
#X connect 57 0 46 0;
#X connect 58 0 48 0;
#X connect 58 0 54 0;
#X connect 59 0 57 0;
#X connect 60 0 62 0;
#X connect 61 0 47 0;
#X connect 62 0 57 0;
#X connect 62 0 69 0;
#X connect 63 0 62 1;
#X connect 64 0 53 0;
#X connect 65 0 63 0;
#X connect 65 0 59 0;
#X connect 66 0 53 0;
#X connect 67 0 68 0;
#X connect 69 0 62 1;
#X connect 70 0 52 0;
#X restore 610 306 pd DY13;
#N canvas 952 127 601 712 DX13 0;
#X obj 411 487 outlet;
#X obj 405 175 bng 19 250 50 0 empty empty empty 0 -10 0 12 #fcfcfc #000000 #000000;
#X floatatom 413 336 5 0 0 0 - - - 0;
#X obj 491 283 t b f;
#X floatatom 588 259 5 0 0 0 - - - 0;
#X obj 407 95 tgl 19 0 empty empty empty 0 -10 0 12 #fcfcfc #000000 #000000 0 1;
#X floatatom 390 265 5 0 0 0 - - - 0;
#X obj 332 133 sel 0;
#X floatatom 356 186 5 0 0 0 - - - 0;
#X floatatom 414 459 5 0 0 0 - - - 0;
#X obj 398 220 f;
#X obj 412 376 sel 1;
#X obj 406 138 metro 5;
#X obj 417 422 f;
#X floatatom 335 419 5 0 0 0 - - - 0;
#X obj 402 50 inlet;
#X floatatom 311 325 5 0 0 0 - - - 0;
#X obj 469 415 + 0.1;
#X msg 590 228 14;
#X obj 413 312 <=;
#X obj 483 219 + 0.1;
#X msg 309 241 -7;
#X obj 815 503 outlet;
#X obj 809 191 bng 19 250 50 0 empty empty empty 0 -10 0 12 #fcfcfc #000000 #000000;
#X floatatom 817 352 5 0 0 0 - - - 0;
#X obj 895 299 t b f;
#X floatatom 992 275 5 0 0 0 - - - 0;
#X obj 811 111 tgl 19 0 empty empty empty 0 -10 0 12 #fcfcfc #000000 #000000 0 1;
#X floatatom 794 281 5 0 0 0 - - - 0;
#X obj 736 149 sel 0;
#X floatatom 760 202 5 0 0 0 - - - 0;
#X floatatom 818 475 5 0 0 0 - - - 0;
#X obj 802 236 f;
#X obj 816 392 sel 1;
#X obj 810 154 metro 5;
#X obj 821 438 f;
#X floatatom 739 435 5 0 0 0 - - - 0;
#X obj 806 66 inlet;
#X floatatom 715 341 5 0 0 0 - - - 0;
#X obj 873 431 + 0.1;
#X msg 994 244 14;
#X obj 817 328 <=;
#X obj 887 235 + 0.1;
#X msg 713 257 -7;
#X obj 473 47 r pattern00;
#X obj 894 68 r pattern01;
#X connect 1 0 10 0;
#X connect 2 0 11 0;
#X connect 3 1 19 1;
#X connect 4 0 3 0;
#X connect 5 0 7 0;
#X connect 5 0 12 0;
#X connect 5 0 18 0;
#X connect 6 0 19 0;
#X connect 7 0 8 0;
#X connect 7 0 21 0;
#X connect 8 0 6 0;
#X connect 8 0 10 1;
#X connect 9 0 0 0;
#X connect 10 0 6 0;
#X connect 10 0 20 0;
#X connect 11 0 13 0;
#X connect 12 0 1 0;
#X connect 13 0 9 0;
#X connect 13 0 17 0;
#X connect 14 0 9 0;
#X connect 15 0 5 0;
#X connect 16 0 13 1;
#X connect 17 0 13 1;
#X connect 18 0 4 0;
#X connect 19 0 2 0;
#X connect 20 0 10 1;
#X connect 21 0 16 0;
#X connect 21 0 14 0;
#X connect 23 0 32 0;
#X connect 24 0 33 0;
#X connect 25 1 41 1;
#X connect 26 0 25 0;
#X connect 27 0 29 0;
#X connect 27 0 34 0;
#X connect 27 0 40 0;
#X connect 28 0 41 0;
#X connect 29 0 30 0;
#X connect 29 0 43 0;
#X connect 30 0 28 0;
#X connect 30 0 32 1;
#X connect 31 0 22 0;
#X connect 32 0 28 0;
#X connect 32 0 42 0;
#X connect 33 0 35 0;
#X connect 34 0 23 0;
#X connect 35 0 31 0;
#X connect 35 0 39 0;
#X connect 36 0 31 0;
#X connect 37 0 27 0;
#X connect 38 0 35 1;
#X connect 39 0 35 1;
#X connect 40 0 26 0;
#X connect 41 0 24 0;
#X connect 42 0 32 1;
#X connect 43 0 38 0;
#X connect 43 0 36 0;
#X connect 44 0 5 0;
#X connect 45 0 27 0;
#X restore 554 308 pd DX13;
#X obj 496 398 translateXYZ -7 6 -10;
#X obj 1471 313 gemhead;
#X obj 1473 403 translateXYZ -7 -12 -10;
#X obj 1286 312 gemhead;
#X obj 1288 402 translateXYZ 7 -12 -10;
#X obj 1094 313 gemhead;
#X obj 900 308 gemhead;
#X obj 1096 403 translateXYZ 7 -6 -10;
#X obj 902 398 translateXYZ -7 -6 -10;
#N canvas 443 283 601 683 DX14 0;
#X obj 411 487 outlet;
#X obj 405 175 bng 19 250 50 0 empty empty empty 0 -10 0 12 #fcfcfc #000000 #000000;
#X floatatom 413 336 5 0 0 0 - - - 0;
#X obj 491 283 t b f;
#X floatatom 588 259 5 0 0 0 - - - 0;
#X obj 407 95 tgl 19 0 empty empty empty 0 -10 0 12 #fcfcfc #000000 #000000 0 1;
#X floatatom 390 265 5 0 0 0 - - - 0;
#X obj 332 133 sel 0;
#X floatatom 356 186 5 0 0 0 - - - 0;
#X floatatom 414 459 5 0 0 0 - - - 0;
#X obj 398 220 f;
#X obj 412 376 sel 1;
#X obj 406 138 metro 5;
#X obj 417 422 f;
#X floatatom 335 419 5 0 0 0 - - - 0;
#X obj 402 50 inlet;
#X floatatom 311 325 5 0 0 0 - - - 0;
#X msg 309 241 7;
#X obj 469 415 - 0.1;
#X obj 483 219 - 0.1;
#X obj 413 312 >=;
#X msg 590 228 -14;
#X obj 803 502 outlet;
#X obj 797 190 bng 19 250 50 0 empty empty empty 0 -10 0 12 #fcfcfc #000000 #000000;
#X floatatom 805 351 5 0 0 0 - - - 0;
#X obj 883 298 t b f;
#X floatatom 980 274 5 0 0 0 - - - 0;
#X obj 799 110 tgl 19 0 empty empty empty 0 -10 0 12 #fcfcfc #000000 #000000 0 1;
#X floatatom 782 280 5 0 0 0 - - - 0;
#X obj 724 148 sel 0;
#X floatatom 748 201 5 0 0 0 - - - 0;
#X floatatom 806 474 5 0 0 0 - - - 0;
#X obj 790 235 f;
#X obj 804 391 sel 1;
#X obj 798 153 metro 5;
#X obj 809 437 f;
#X floatatom 727 434 5 0 0 0 - - - 0;
#X obj 794 65 inlet;
#X floatatom 703 340 5 0 0 0 - - - 0;
#X msg 701 256 7;
#X obj 861 430 - 0.1;
#X obj 875 234 - 0.1;
#X obj 805 327 >=;
#X msg 982 243 -14;
#X obj 470 50 r pattern00;
#X obj 861 64 r pattern01;
#X connect 1 0 10 0;
#X connect 2 0 11 0;
#X connect 3 1 20 1;
#X connect 4 0 3 0;
#X connect 5 0 7 0;
#X connect 5 0 12 0;
#X connect 5 0 21 0;
#X connect 6 0 20 0;
#X connect 7 0 8 0;
#X connect 7 0 17 0;
#X connect 8 0 6 0;
#X connect 8 0 10 1;
#X connect 9 0 0 0;
#X connect 10 0 6 0;
#X connect 10 0 19 0;
#X connect 11 0 13 0;
#X connect 12 0 1 0;
#X connect 13 0 9 0;
#X connect 13 0 18 0;
#X connect 14 0 9 0;
#X connect 15 0 5 0;
#X connect 16 0 13 1;
#X connect 17 0 16 0;
#X connect 17 0 14 0;
#X connect 18 0 13 1;
#X connect 19 0 10 1;
#X connect 20 0 2 0;
#X connect 21 0 4 0;
#X connect 23 0 32 0;
#X connect 24 0 33 0;
#X connect 25 1 42 1;
#X connect 26 0 25 0;
#X connect 27 0 29 0;
#X connect 27 0 34 0;
#X connect 27 0 43 0;
#X connect 28 0 42 0;
#X connect 29 0 30 0;
#X connect 29 0 39 0;
#X connect 30 0 28 0;
#X connect 30 0 32 1;
#X connect 31 0 22 0;
#X connect 32 0 28 0;
#X connect 32 0 41 0;
#X connect 33 0 35 0;
#X connect 34 0 23 0;
#X connect 35 0 31 0;
#X connect 35 0 40 0;
#X connect 36 0 31 0;
#X connect 37 0 27 0;
#X connect 38 0 35 1;
#X connect 39 0 38 0;
#X connect 39 0 36 0;
#X connect 40 0 35 1;
#X connect 41 0 32 1;
#X connect 42 0 24 0;
#X connect 43 0 26 0;
#X connect 44 0 5 0;
#X connect 45 0 27 0;
#X restore 745 308 pd DX14;
#N canvas 4 76 1920 944 DY14 0;
#X obj 411 487 outlet;
#X obj 405 175 bng 19 250 50 0 empty empty empty 0 -10 0 12 #fcfcfc #000000 #000000;
#X obj 483 219 + 0.1;
#X obj 413 312 <=;
#X floatatom 413 336 5 0 0 0 - - - 0;
#X obj 491 283 t b f;
#X floatatom 588 259 5 0 0 0 - - - 0;
#X obj 407 95 tgl 19 0 empty empty empty 0 -10 0 12 #fcfcfc #000000 #000000 0 1;
#X floatatom 390 265 5 0 0 0 - - - 0;
#X obj 332 133 sel 0;
#X floatatom 356 186 5 0 0 0 - - - 0;
#X floatatom 414 459 5 0 0 0 - - - 0;
#X obj 398 220 f;
#X obj 412 376 sel 1;
#X obj 406 138 metro 5;
#X obj 417 422 f;
#X floatatom 311 325 5 0 0 0 - - - 0;
#X obj 413 58 inlet;
#X obj 467 416 + 0.1;
#X floatatom 335 419 5 0 0 0 - - - 0;
#X msg 317 250 6;
#X msg 590 228 6;
#X obj 811 490 outlet;
#X obj 805 178 bng 19 250 50 0 empty empty empty 0 -10 0 12 #fcfcfc #000000 #000000;
#X obj 883 222 + 0.1;
#X obj 813 315 <=;
#X floatatom 813 339 5 0 0 0 - - - 0;
#X obj 891 286 t b f;
#X floatatom 988 262 5 0 0 0 - - - 0;
#X obj 807 98 tgl 19 0 empty empty empty 0 -10 0 12 #fcfcfc #000000 #000000 0 1;
#X floatatom 790 268 5 0 0 0 - - - 0;
#X obj 732 136 sel 0;
#X floatatom 756 189 5 0 0 0 - - - 0;
#X floatatom 814 462 5 0 0 0 - - - 0;
#X obj 798 223 f;
#X obj 812 379 sel 1;
#X obj 806 141 metro 5;
#X obj 817 425 f;
#X floatatom 711 328 5 0 0 0 - - - 0;
#X obj 813 61 inlet;
#X obj 867 419 + 0.1;
#X floatatom 735 422 5 0 0 0 - - - 0;
#X msg 717 253 6;
#X msg 990 231 6;
#X obj 471 57 r pattern00;
#X obj 870 59 r pattern02;
#X obj 1173 495 outlet;
#X obj 1167 183 bng 19 250 50 0 empty empty empty 0 -10 0 12 #fcfcfc #000000 #000000;
#X obj 1245 227 + 0.1;
#X obj 1175 320 <=;
#X floatatom 1175 344 5 0 0 0 - - - 0;
#X obj 1253 291 t b f;
#X floatatom 1350 267 5 0 0 0 - - - 0;
#X obj 1169 103 tgl 19 0 empty empty empty 0 -10 0 12 #fcfcfc #000000 #000000 0 1;
#X floatatom 1152 273 5 0 0 0 - - - 0;
#X obj 1094 141 sel 0;
#X floatatom 1118 194 5 0 0 0 - - - 0;
#X floatatom 1176 467 5 0 0 0 - - - 0;
#X obj 1160 228 f;
#X obj 1174 384 sel 1;
#X obj 1168 146 metro 5;
#X obj 1179 430 f;
#X floatatom 1073 333 5 0 0 0 - - - 0;
#X obj 1175 66 inlet;
#X floatatom 1097 427 5 0 0 0 - - - 0;
#X msg 1079 258 6;
#X obj 1232 64 r pattern03;
#X msg 1352 236 12;
#X obj 1229 424 - 0.1;
#X connect 1 0 12 0;
#X connect 2 0 12 1;
#X connect 3 0 4 0;
#X connect 4 0 13 0;
#X connect 5 1 3 1;
#X connect 6 0 5 0;
#X connect 7 0 9 0;
#X connect 7 0 14 0;
#X connect 7 0 21 0;
#X connect 8 0 3 0;
#X connect 9 0 10 0;
#X connect 9 0 20 0;
#X connect 10 0 8 0;
#X connect 10 0 12 1;
#X connect 11 0 0 0;
#X connect 12 0 2 0;
#X connect 12 0 8 0;
#X connect 13 0 15 0;
#X connect 14 0 1 0;
#X connect 15 0 11 0;
#X connect 15 0 18 0;
#X connect 16 0 15 1;
#X connect 17 0 7 0;
#X connect 18 0 15 1;
#X connect 19 0 11 0;
#X connect 20 0 16 0;
#X connect 20 0 19 0;
#X connect 21 0 6 0;
#X connect 23 0 34 0;
#X connect 24 0 34 1;
#X connect 25 0 26 0;
#X connect 26 0 35 0;
#X connect 27 1 25 1;
#X connect 28 0 27 0;
#X connect 29 0 31 0;
#X connect 29 0 36 0;
#X connect 29 0 43 0;
#X connect 30 0 25 0;
#X connect 31 0 32 0;
#X connect 31 0 42 0;
#X connect 32 0 30 0;
#X connect 32 0 34 1;
#X connect 33 0 22 0;
#X connect 34 0 24 0;
#X connect 34 0 30 0;
#X connect 35 0 37 0;
#X connect 36 0 23 0;
#X connect 37 0 33 0;
#X connect 37 0 40 0;
#X connect 38 0 37 1;
#X connect 39 0 29 0;
#X connect 40 0 37 1;
#X connect 41 0 33 0;
#X connect 42 0 38 0;
#X connect 42 0 41 0;
#X connect 43 0 28 0;
#X connect 44 0 7 0;
#X connect 45 0 29 0;
#X connect 47 0 58 0;
#X connect 48 0 58 1;
#X connect 49 0 50 0;
#X connect 50 0 59 0;
#X connect 51 1 49 1;
#X connect 52 0 51 0;
#X connect 53 0 55 0;
#X connect 53 0 60 0;
#X connect 53 0 67 0;
#X connect 54 0 49 0;
#X connect 55 0 56 0;
#X connect 55 0 65 0;
#X connect 56 0 54 0;
#X connect 56 0 58 1;
#X connect 57 0 46 0;
#X connect 58 0 48 0;
#X connect 58 0 54 0;
#X connect 59 0 61 0;
#X connect 60 0 47 0;
#X connect 61 0 57 0;
#X connect 61 0 68 0;
#X connect 62 0 61 1;
#X connect 63 0 53 0;
#X connect 64 0 57 0;
#X connect 65 0 62 0;
#X connect 65 0 64 0;
#X connect 66 0 53 0;
#X connect 67 0 52 0;
#X connect 68 0 61 1;
#X restore 801 306 pd DY14;
#N canvas 561 441 1920 944 random 1;
#X obj 669 23 inlet;
#X obj 458 24 r envoie01;
#X obj 375 24 r envoie00;
#X obj 540 24 r envoie02;
#X obj 397 475 s pattern00;
#X obj 491 476 s pattern01;
#X obj 586 476 s pattern02;
#X obj 698 85 bng 19 250 50 0 empty empty empty 0 -10 0 12 #fcfcfc #000000 #000000;
#X obj 367 155 random 3;
#X obj 510 155 random 3;
#X obj 431 299 ==;
#X obj 479 300 >;
#X obj 376 300 <;
#X floatatom 365 184 5 0 0 0 - - - 0;
#X floatatom 510 179 5 0 0 0 - - - 0;
#X obj 515 202 t b f;
#X obj 473 71 bng 19 250 50 0 empty empty empty 0 -10 0 12 #fcfcfc #000000 #000000;
#X obj 680 475 s pattern03;
#X obj 772 186 random 3;
#X obj 468 117 t b b b;
#X floatatom 772 210 5 0 0 0 - - - 0;
#X obj 772 233 t b f;
#X obj 565 341 random 3;
#X obj 653 392 <=;
#X obj 699 393 >;
#X connect 0 0 7 0;
#X connect 1 0 16 0;
#X connect 2 0 16 0;
#X connect 3 0 16 0;
#X connect 7 0 16 0;
#X connect 8 0 13 0;
#X connect 9 0 14 0;
#X connect 10 0 5 0;
#X connect 11 0 6 0;
#X connect 12 0 4 0;
#X connect 13 0 11 0;
#X connect 13 0 10 0;
#X connect 13 0 12 0;
#X connect 14 0 15 0;
#X connect 15 0 11 0;
#X connect 15 0 10 0;
#X connect 15 0 12 0;
#X connect 15 1 11 1;
#X connect 15 1 10 1;
#X connect 15 1 12 1;
#X connect 16 0 19 0;
#X connect 18 0 20 0;
#X connect 19 0 8 0;
#X connect 19 1 9 0;
#X connect 20 0 21 0;
#X connect 21 0 23 0;
#X connect 21 0 24 0;
#X connect 21 1 23 1;
#X connect 21 1 24 1;
#X connect 22 0 23 0;
#X connect 22 0 24 0;
#X connect 23 0 6 0;
#X connect 24 0 17 0;
#X restore 1203 133 pd random;
#N canvas 764 306 601 799 DX15 0;
#X obj 411 487 outlet;
#X obj 405 175 bng 19 250 50 0 empty empty empty 0 -10 0 12 #fcfcfc #000000 #000000;
#X floatatom 413 336 5 0 0 0 - - - 0;
#X obj 491 283 t b f;
#X floatatom 588 259 5 0 0 0 - - - 0;
#X obj 407 95 tgl 19 0 empty empty empty 0 -10 0 12 #fcfcfc #000000 #000000 0 1;
#X floatatom 390 265 5 0 0 0 - - - 0;
#X obj 332 133 sel 0;
#X floatatom 356 186 5 0 0 0 - - - 0;
#X floatatom 414 459 5 0 0 0 - - - 0;
#X obj 398 220 f;
#X obj 412 376 sel 1;
#X obj 406 138 metro 5;
#X obj 417 422 f;
#X floatatom 335 419 5 0 0 0 - - - 0;
#X obj 402 50 inlet;
#X floatatom 311 325 5 0 0 0 - - - 0;
#X obj 483 219 - 0.1;
#X obj 413 312 >=;
#X msg 590 228 -14;
#X obj 469 415 + 0.1;
#X msg 309 241 -7;
#X obj 773 503 outlet;
#X obj 767 191 bng 19 250 50 0 empty empty empty 0 -10 0 12 #fcfcfc #000000 #000000;
#X floatatom 775 352 5 0 0 0 - - - 0;
#X obj 853 299 t b f;
#X floatatom 950 275 5 0 0 0 - - - 0;
#X obj 769 111 tgl 19 0 empty empty empty 0 -10 0 12 #fcfcfc #000000 #000000 0 1;
#X floatatom 752 281 5 0 0 0 - - - 0;
#X obj 694 149 sel 0;
#X floatatom 718 202 5 0 0 0 - - - 0;
#X floatatom 776 475 5 0 0 0 - - - 0;
#X obj 760 236 f;
#X obj 774 392 sel 1;
#X obj 768 154 metro 5;
#X obj 779 438 f;
#X floatatom 697 435 5 0 0 0 - - - 0;
#X obj 764 66 inlet;
#X floatatom 673 341 5 0 0 0 - - - 0;
#X obj 845 235 - 0.1;
#X obj 775 328 >=;
#X msg 952 244 -14;
#X obj 831 431 + 0.1;
#X msg 671 257 -7;
#X obj 469 47 r pattern00;
#X obj 822 67 r pattern01;
#X connect 1 0 10 0;
#X connect 2 0 11 0;
#X connect 3 1 18 1;
#X connect 4 0 3 0;
#X connect 5 0 7 0;
#X connect 5 0 12 0;
#X connect 5 0 19 0;
#X connect 6 0 18 0;
#X connect 7 0 8 0;
#X connect 7 0 21 0;
#X connect 8 0 6 0;
#X connect 8 0 10 1;
#X connect 9 0 0 0;
#X connect 10 0 6 0;
#X connect 10 0 17 0;
#X connect 11 0 13 0;
#X connect 12 0 1 0;
#X connect 13 0 9 0;
#X connect 13 0 20 0;
#X connect 14 0 9 0;
#X connect 15 0 5 0;
#X connect 16 0 13 1;
#X connect 17 0 10 1;
#X connect 18 0 2 0;
#X connect 19 0 4 0;
#X connect 20 0 13 1;
#X connect 21 0 16 0;
#X connect 21 0 14 0;
#X connect 23 0 32 0;
#X connect 24 0 33 0;
#X connect 25 1 40 1;
#X connect 26 0 25 0;
#X connect 27 0 29 0;
#X connect 27 0 34 0;
#X connect 27 0 41 0;
#X connect 28 0 40 0;
#X connect 29 0 30 0;
#X connect 29 0 43 0;
#X connect 30 0 28 0;
#X connect 30 0 32 1;
#X connect 31 0 22 0;
#X connect 32 0 28 0;
#X connect 32 0 39 0;
#X connect 33 0 35 0;
#X connect 34 0 23 0;
#X connect 35 0 31 0;
#X connect 35 0 42 0;
#X connect 36 0 31 0;
#X connect 37 0 27 0;
#X connect 38 0 35 1;
#X connect 39 0 32 1;
#X connect 40 0 24 0;
#X connect 41 0 26 0;
#X connect 42 0 35 1;
#X connect 43 0 38 0;
#X connect 43 0 36 0;
#X connect 44 0 5 0;
#X connect 45 0 27 0;
#X restore 960 308 pd DX15;
#N canvas 1096 191 1920 944 DY15 0;
#X obj 411 487 outlet;
#X obj 405 175 bng 19 250 50 0 empty empty empty 0 -10 0 12 #fcfcfc #000000 #000000;
#X obj 483 219 + 0.1;
#X obj 413 312 <=;
#X floatatom 413 336 5 0 0 0 - - - 0;
#X obj 491 283 t b f;
#X floatatom 588 259 5 0 0 0 - - - 0;
#X obj 407 95 tgl 19 0 empty empty empty 0 -10 0 12 #fcfcfc #000000 #000000 0 1;
#X floatatom 390 265 5 0 0 0 - - - 0;
#X obj 332 133 sel 0;
#X floatatom 356 186 5 0 0 0 - - - 0;
#X floatatom 414 459 5 0 0 0 - - - 0;
#X obj 398 220 f;
#X floatatom 335 419 5 0 0 0 - - - 0;
#X obj 467 416 - 0.1;
#X obj 412 376 sel 1;
#X obj 406 138 metro 5;
#X obj 417 422 f;
#X floatatom 311 325 5 0 0 0 - - - 0;
#X obj 413 58 inlet;
#X msg 590 228 6;
#X msg 317 250 -6;
#X obj 766 511 outlet;
#X obj 760 199 bng 19 250 50 0 empty empty empty 0 -10 0 12 #fcfcfc #000000 #000000;
#X obj 838 243 + 0.1;
#X obj 768 336 <=;
#X floatatom 768 360 5 0 0 0 - - - 0;
#X obj 846 307 t b f;
#X floatatom 943 283 5 0 0 0 - - - 0;
#X obj 762 119 tgl 19 0 empty empty empty 0 -10 0 12 #fcfcfc #000000 #000000 0 1;
#X floatatom 745 289 5 0 0 0 - - - 0;
#X obj 687 157 sel 0;
#X floatatom 711 210 5 0 0 0 - - - 0;
#X floatatom 769 483 5 0 0 0 - - - 0;
#X obj 753 244 f;
#X floatatom 690 443 5 0 0 0 - - - 0;
#X obj 822 440 - 0.1;
#X obj 767 400 sel 1;
#X obj 761 162 metro 5;
#X obj 772 446 f;
#X floatatom 666 349 5 0 0 0 - - - 0;
#X obj 768 82 inlet;
#X msg 945 252 6;
#X msg 672 274 -6;
#X obj 468 56 r pattern00;
#X obj 822 80 r pattern02;
#X obj 1150 509 outlet;
#X obj 1144 197 bng 19 250 50 0 empty empty empty 0 -10 0 12 #fcfcfc #000000 #000000;
#X obj 1222 241 + 0.1;
#X obj 1152 334 <=;
#X floatatom 1152 358 5 0 0 0 - - - 0;
#X obj 1230 305 t b f;
#X floatatom 1327 281 5 0 0 0 - - - 0;
#X obj 1146 117 tgl 19 0 empty empty empty 0 -10 0 12 #fcfcfc #000000 #000000 0 1;
#X floatatom 1129 287 5 0 0 0 - - - 0;
#X obj 1071 155 sel 0;
#X floatatom 1095 208 5 0 0 0 - - - 0;
#X floatatom 1153 481 5 0 0 0 - - - 0;
#X obj 1137 242 f;
#X floatatom 1074 441 5 0 0 0 - - - 0;
#X obj 1206 438 - 0.1;
#X obj 1151 398 sel 1;
#X obj 1145 160 metro 5;
#X obj 1156 444 f;
#X floatatom 1050 347 5 0 0 0 - - - 0;
#X obj 1152 80 inlet;
#X msg 1056 272 -6;
#X msg 1329 250 12;
#X obj 1206 78 r pattern03;
#X connect 1 0 12 0;
#X connect 2 0 12 1;
#X connect 3 0 4 0;
#X connect 4 0 15 0;
#X connect 5 1 3 1;
#X connect 6 0 5 0;
#X connect 7 0 9 0;
#X connect 7 0 16 0;
#X connect 7 0 20 0;
#X connect 8 0 3 0;
#X connect 9 0 10 0;
#X connect 9 0 21 0;
#X connect 10 0 8 0;
#X connect 10 0 12 1;
#X connect 11 0 0 0;
#X connect 12 0 2 0;
#X connect 12 0 8 0;
#X connect 13 0 11 0;
#X connect 14 0 17 1;
#X connect 15 0 17 0;
#X connect 16 0 1 0;
#X connect 17 0 14 0;
#X connect 17 0 11 0;
#X connect 18 0 17 1;
#X connect 19 0 7 0;
#X connect 20 0 6 0;
#X connect 21 0 18 0;
#X connect 21 0 13 0;
#X connect 23 0 34 0;
#X connect 24 0 34 1;
#X connect 25 0 26 0;
#X connect 26 0 37 0;
#X connect 27 1 25 1;
#X connect 28 0 27 0;
#X connect 29 0 31 0;
#X connect 29 0 38 0;
#X connect 29 0 42 0;
#X connect 30 0 25 0;
#X connect 31 0 32 0;
#X connect 31 0 43 0;
#X connect 32 0 30 0;
#X connect 32 0 34 1;
#X connect 33 0 22 0;
#X connect 34 0 24 0;
#X connect 34 0 30 0;
#X connect 35 0 33 0;
#X connect 36 0 39 1;
#X connect 37 0 39 0;
#X connect 38 0 23 0;
#X connect 39 0 36 0;
#X connect 39 0 33 0;
#X connect 40 0 39 1;
#X connect 41 0 29 0;
#X connect 42 0 28 0;
#X connect 43 0 40 0;
#X connect 43 0 35 0;
#X connect 44 0 7 0;
#X connect 45 0 29 0;
#X connect 47 0 58 0;
#X connect 48 0 58 1;
#X connect 49 0 50 0;
#X connect 50 0 61 0;
#X connect 51 1 49 1;
#X connect 52 0 51 0;
#X connect 53 0 55 0;
#X connect 53 0 62 0;
#X connect 53 0 67 0;
#X connect 54 0 49 0;
#X connect 55 0 56 0;
#X connect 55 0 66 0;
#X connect 56 0 54 0;
#X connect 56 0 58 1;
#X connect 57 0 46 0;
#X connect 58 0 48 0;
#X connect 58 0 54 0;
#X connect 59 0 57 0;
#X connect 60 0 63 1;
#X connect 61 0 63 0;
#X connect 62 0 47 0;
#X connect 63 0 60 0;
#X connect 63 0 57 0;
#X connect 64 0 63 1;
#X connect 65 0 53 0;
#X connect 66 0 64 0;
#X connect 66 0 59 0;
#X connect 67 0 52 0;
#X connect 68 0 53 0;
#X restore 1016 306 pd DY15;
#N canvas 988 259 601 799 DX16 0;
#X obj 411 487 outlet;
#X obj 405 175 bng 19 250 50 0 empty empty empty 0 -10 0 12 #fcfcfc #000000 #000000;
#X floatatom 413 336 5 0 0 0 - - - 0;
#X obj 491 283 t b f;
#X floatatom 588 259 5 0 0 0 - - - 0;
#X obj 407 95 tgl 19 0 empty empty empty 0 -10 0 12 #fcfcfc #000000 #000000 0 1;
#X floatatom 390 265 5 0 0 0 - - - 0;
#X obj 332 133 sel 0;
#X floatatom 356 186 5 0 0 0 - - - 0;
#X floatatom 414 459 5 0 0 0 - - - 0;
#X obj 398 220 f;
#X obj 412 376 sel 1;
#X obj 406 138 metro 5;
#X obj 417 422 f;
#X floatatom 335 419 5 0 0 0 - - - 0;
#X obj 402 50 inlet;
#X floatatom 311 325 5 0 0 0 - - - 0;
#X msg 309 241 7;
#X obj 469 415 - 0.1;
#X obj 483 219 - 0.1;
#X obj 413 312 >=;
#X msg 590 228 -14;
#X obj 467 48 r pattern00;
#X obj 793 502 outlet;
#X obj 787 190 bng 19 250 50 0 empty empty empty 0 -10 0 12 #fcfcfc #000000 #000000;
#X floatatom 795 351 5 0 0 0 - - - 0;
#X obj 873 298 t b f;
#X floatatom 970 274 5 0 0 0 - - - 0;
#X obj 789 110 tgl 19 0 empty empty empty 0 -10 0 12 #fcfcfc #000000 #000000 0 1;
#X floatatom 772 280 5 0 0 0 - - - 0;
#X obj 714 148 sel 0;
#X floatatom 738 201 5 0 0 0 - - - 0;
#X floatatom 796 474 5 0 0 0 - - - 0;
#X obj 780 235 f;
#X obj 794 391 sel 1;
#X obj 788 153 metro 5;
#X obj 799 437 f;
#X floatatom 717 434 5 0 0 0 - - - 0;
#X obj 784 65 inlet;
#X floatatom 693 340 5 0 0 0 - - - 0;
#X msg 691 256 7;
#X obj 851 430 - 0.1;
#X obj 865 234 - 0.1;
#X obj 795 327 >=;
#X msg 972 243 -14;
#X obj 849 63 r pattern01;
#X connect 1 0 10 0;
#X connect 2 0 11 0;
#X connect 3 1 20 1;
#X connect 4 0 3 0;
#X connect 5 0 7 0;
#X connect 5 0 12 0;
#X connect 5 0 21 0;
#X connect 6 0 20 0;
#X connect 7 0 8 0;
#X connect 7 0 17 0;
#X connect 8 0 6 0;
#X connect 8 0 10 1;
#X connect 9 0 0 0;
#X connect 10 0 6 0;
#X connect 10 0 19 0;
#X connect 11 0 13 0;
#X connect 12 0 1 0;
#X connect 13 0 9 0;
#X connect 13 0 18 0;
#X connect 14 0 9 0;
#X connect 15 0 5 0;
#X connect 16 0 13 1;
#X connect 17 0 16 0;
#X connect 17 0 14 0;
#X connect 18 0 13 1;
#X connect 19 0 10 1;
#X connect 20 0 2 0;
#X connect 21 0 4 0;
#X connect 22 0 5 0;
#X connect 24 0 33 0;
#X connect 25 0 34 0;
#X connect 26 1 43 1;
#X connect 27 0 26 0;
#X connect 28 0 30 0;
#X connect 28 0 35 0;
#X connect 28 0 44 0;
#X connect 29 0 43 0;
#X connect 30 0 31 0;
#X connect 30 0 40 0;
#X connect 31 0 29 0;
#X connect 31 0 33 1;
#X connect 32 0 23 0;
#X connect 33 0 29 0;
#X connect 33 0 42 0;
#X connect 34 0 36 0;
#X connect 35 0 24 0;
#X connect 36 0 32 0;
#X connect 36 0 41 0;
#X connect 37 0 32 0;
#X connect 38 0 28 0;
#X connect 39 0 36 1;
#X connect 40 0 39 0;
#X connect 40 0 37 0;
#X connect 41 0 36 1;
#X connect 42 0 33 1;
#X connect 43 0 25 0;
#X connect 44 0 27 0;
#X connect 45 0 28 0;
#X restore 1154 313 pd DX16;
#N canvas 1096 191 1920 944 DY16 0;
#X obj 411 487 outlet;
#X obj 405 175 bng 19 250 50 0 empty empty empty 0 -10 0 12 #fcfcfc #000000 #000000;
#X obj 483 219 + 0.1;
#X obj 413 312 <=;
#X floatatom 413 336 5 0 0 0 - - - 0;
#X obj 491 283 t b f;
#X floatatom 588 259 5 0 0 0 - - - 0;
#X obj 407 95 tgl 19 0 empty empty empty 0 -10 0 12 #fcfcfc #000000 #000000 0 1;
#X floatatom 390 265 5 0 0 0 - - - 0;
#X obj 332 133 sel 0;
#X floatatom 356 186 5 0 0 0 - - - 0;
#X floatatom 414 459 5 0 0 0 - - - 0;
#X obj 398 220 f;
#X floatatom 335 419 5 0 0 0 - - - 0;
#X obj 467 416 - 0.1;
#X obj 412 376 sel 1;
#X obj 406 138 metro 5;
#X obj 417 422 f;
#X floatatom 311 325 5 0 0 0 - - - 0;
#X obj 413 58 inlet;
#X msg 590 228 6;
#X msg 317 250 -6;
#X obj 759 501 outlet;
#X obj 753 189 bng 19 250 50 0 empty empty empty 0 -10 0 12 #fcfcfc #000000 #000000;
#X obj 831 233 + 0.1;
#X obj 761 326 <=;
#X floatatom 761 350 5 0 0 0 - - - 0;
#X obj 839 297 t b f;
#X floatatom 936 273 5 0 0 0 - - - 0;
#X obj 755 109 tgl 19 0 empty empty empty 0 -10 0 12 #fcfcfc #000000 #000000 0 1;
#X floatatom 738 279 5 0 0 0 - - - 0;
#X obj 680 147 sel 0;
#X floatatom 704 200 5 0 0 0 - - - 0;
#X floatatom 762 473 5 0 0 0 - - - 0;
#X obj 746 234 f;
#X floatatom 683 433 5 0 0 0 - - - 0;
#X obj 815 430 - 0.1;
#X obj 760 390 sel 1;
#X obj 754 152 metro 5;
#X obj 765 436 f;
#X floatatom 659 339 5 0 0 0 - - - 0;
#X obj 761 72 inlet;
#X msg 938 242 6;
#X msg 665 264 -6;
#X obj 469 57 r pattern00;
#X obj 818 72 r pattern02;
#X obj 1112 500 outlet;
#X obj 1106 188 bng 19 250 50 0 empty empty empty 0 -10 0 12 #fcfcfc #000000 #000000;
#X obj 1184 232 + 0.1;
#X obj 1114 325 <=;
#X floatatom 1114 349 5 0 0 0 - - - 0;
#X obj 1192 296 t b f;
#X floatatom 1289 272 5 0 0 0 - - - 0;
#X obj 1108 108 tgl 19 0 empty empty empty 0 -10 0 12 #fcfcfc #000000 #000000 0 1;
#X floatatom 1091 278 5 0 0 0 - - - 0;
#X obj 1033 146 sel 0;
#X floatatom 1057 199 5 0 0 0 - - - 0;
#X floatatom 1115 472 5 0 0 0 - - - 0;
#X obj 1099 233 f;
#X floatatom 1036 432 5 0 0 0 - - - 0;
#X obj 1113 389 sel 1;
#X obj 1107 151 metro 5;
#X obj 1118 435 f;
#X floatatom 1012 338 5 0 0 0 - - - 0;
#X obj 1114 71 inlet;
#X msg 1018 263 -6;
#X obj 1171 71 r pattern02;
#X msg 1291 241 12;
#X obj 1168 429 + 0.1;
#X connect 1 0 12 0;
#X connect 2 0 12 1;
#X connect 3 0 4 0;
#X connect 4 0 15 0;
#X connect 5 1 3 1;
#X connect 6 0 5 0;
#X connect 7 0 9 0;
#X connect 7 0 16 0;
#X connect 7 0 20 0;
#X connect 8 0 3 0;
#X connect 9 0 10 0;
#X connect 9 0 21 0;
#X connect 10 0 8 0;
#X connect 10 0 12 1;
#X connect 11 0 0 0;
#X connect 12 0 2 0;
#X connect 12 0 8 0;
#X connect 13 0 11 0;
#X connect 14 0 17 1;
#X connect 15 0 17 0;
#X connect 16 0 1 0;
#X connect 17 0 14 0;
#X connect 17 0 11 0;
#X connect 18 0 17 1;
#X connect 19 0 7 0;
#X connect 20 0 6 0;
#X connect 21 0 18 0;
#X connect 21 0 13 0;
#X connect 23 0 34 0;
#X connect 24 0 34 1;
#X connect 25 0 26 0;
#X connect 26 0 37 0;
#X connect 27 1 25 1;
#X connect 28 0 27 0;
#X connect 29 0 31 0;
#X connect 29 0 38 0;
#X connect 29 0 42 0;
#X connect 30 0 25 0;
#X connect 31 0 32 0;
#X connect 31 0 43 0;
#X connect 32 0 30 0;
#X connect 32 0 34 1;
#X connect 33 0 22 0;
#X connect 34 0 24 0;
#X connect 34 0 30 0;
#X connect 35 0 33 0;
#X connect 36 0 39 1;
#X connect 37 0 39 0;
#X connect 38 0 23 0;
#X connect 39 0 36 0;
#X connect 39 0 33 0;
#X connect 40 0 39 1;
#X connect 41 0 29 0;
#X connect 42 0 28 0;
#X connect 43 0 40 0;
#X connect 43 0 35 0;
#X connect 44 0 7 0;
#X connect 45 0 29 0;
#X connect 47 0 58 0;
#X connect 48 0 58 1;
#X connect 49 0 50 0;
#X connect 50 0 60 0;
#X connect 51 1 49 1;
#X connect 52 0 51 0;
#X connect 53 0 55 0;
#X connect 53 0 61 0;
#X connect 53 0 67 0;
#X connect 54 0 49 0;
#X connect 55 0 56 0;
#X connect 55 0 65 0;
#X connect 56 0 54 0;
#X connect 56 0 58 1;
#X connect 57 0 46 0;
#X connect 58 0 48 0;
#X connect 58 0 54 0;
#X connect 59 0 57 0;
#X connect 60 0 62 0;
#X connect 61 0 47 0;
#X connect 62 0 57 0;
#X connect 62 0 68 0;
#X connect 63 0 62 1;
#X connect 64 0 53 0;
#X connect 65 0 63 0;
#X connect 65 0 59 0;
#X connect 66 0 53 0;
#X connect 67 0 52 0;
#X connect 68 0 62 1;
#X restore 1210 311 pd DY16;
#N canvas 767 171 1920 944 DX17 0;
#X obj 411 487 outlet;
#X obj 405 175 bng 19 250 50 0 empty empty empty 0 -10 0 12 #fcfcfc #000000 #000000;
#X floatatom 413 336 5 0 0 0 - - - 0;
#X obj 491 283 t b f;
#X floatatom 588 259 5 0 0 0 - - - 0;
#X obj 407 95 tgl 19 0 empty empty empty 0 -10 0 12 #fcfcfc #000000 #000000 0 1;
#X floatatom 390 265 5 0 0 0 - - - 0;
#X obj 332 133 sel 0;
#X floatatom 356 186 5 0 0 0 - - - 0;
#X floatatom 414 459 5 0 0 0 - - - 0;
#X obj 398 220 f;
#X obj 412 376 sel 1;
#X obj 406 138 metro 5;
#X obj 417 422 f;
#X floatatom 335 419 5 0 0 0 - - - 0;
#X obj 402 50 inlet;
#X floatatom 311 325 5 0 0 0 - - - 0;
#X msg 309 241 7;
#X obj 469 415 - 0.1;
#X obj 483 219 - 0.1;
#X obj 413 312 >=;
#X msg 590 228 -14;
#X obj 779 490 outlet;
#X obj 773 178 bng 19 250 50 0 empty empty empty 0 -10 0 12 #fcfcfc #000000 #000000;
#X floatatom 781 339 5 0 0 0 - - - 0;
#X obj 859 286 t b f;
#X floatatom 956 262 5 0 0 0 - - - 0;
#X obj 775 98 tgl 19 0 empty empty empty 0 -10 0 12 #fcfcfc #000000 #000000 0 1;
#X floatatom 758 268 5 0 0 0 - - - 0;
#X obj 700 136 sel 0;
#X floatatom 724 189 5 0 0 0 - - - 0;
#X floatatom 782 462 5 0 0 0 - - - 0;
#X obj 766 223 f;
#X obj 780 379 sel 1;
#X obj 774 141 metro 5;
#X obj 785 425 f;
#X floatatom 703 422 5 0 0 0 - - - 0;
#X obj 770 53 inlet;
#X floatatom 679 328 5 0 0 0 - - - 0;
#X msg 677 244 7;
#X obj 837 418 - 0.1;
#X obj 851 222 - 0.1;
#X obj 781 315 >=;
#X msg 958 231 -14;
#X obj 469 53 r pattern00;
#X obj 844 52 r pattern01;
#X obj 1163 496 outlet;
#X obj 1157 184 bng 19 250 50 0 empty empty empty 0 -10 0 12 #fcfcfc #000000 #000000;
#X floatatom 1165 345 5 0 0 0 - - - 0;
#X obj 1243 292 t b f;
#X floatatom 1340 268 5 0 0 0 - - - 0;
#X obj 1159 104 tgl 19 0 empty empty empty 0 -10 0 12 #fcfcfc #000000 #000000 0 1;
#X floatatom 1142 274 5 0 0 0 - - - 0;
#X obj 1084 142 sel 0;
#X floatatom 1108 195 5 0 0 0 - - - 0;
#X floatatom 1166 468 5 0 0 0 - - - 0;
#X obj 1150 229 f;
#X obj 1164 385 sel 1;
#X obj 1158 147 metro 5;
#X obj 1169 431 f;
#X floatatom 1087 428 5 0 0 0 - - - 0;
#X obj 1154 59 inlet;
#X floatatom 1063 334 5 0 0 0 - - - 0;
#X msg 1061 250 7;
#X obj 1221 424 - 0.1;
#X obj 1235 228 - 0.1;
#X obj 1165 321 >=;
#X msg 1342 237 -14;
#X obj 1228 58 r pattern03;
#X connect 1 0 10 0;
#X connect 2 0 11 0;
#X connect 3 1 20 1;
#X connect 4 0 3 0;
#X connect 5 0 7 0;
#X connect 5 0 12 0;
#X connect 5 0 21 0;
#X connect 6 0 20 0;
#X connect 7 0 8 0;
#X connect 7 0 17 0;
#X connect 8 0 6 0;
#X connect 8 0 10 1;
#X connect 9 0 0 0;
#X connect 10 0 6 0;
#X connect 10 0 19 0;
#X connect 11 0 13 0;
#X connect 12 0 1 0;
#X connect 13 0 9 0;
#X connect 13 0 18 0;
#X connect 14 0 9 0;
#X connect 15 0 5 0;
#X connect 16 0 13 1;
#X connect 17 0 16 0;
#X connect 17 0 14 0;
#X connect 18 0 13 1;
#X connect 19 0 10 1;
#X connect 20 0 2 0;
#X connect 21 0 4 0;
#X connect 23 0 32 0;
#X connect 24 0 33 0;
#X connect 25 1 42 1;
#X connect 26 0 25 0;
#X connect 27 0 29 0;
#X connect 27 0 34 0;
#X connect 27 0 43 0;
#X connect 28 0 42 0;
#X connect 29 0 30 0;
#X connect 29 0 39 0;
#X connect 30 0 28 0;
#X connect 30 0 32 1;
#X connect 31 0 22 0;
#X connect 32 0 28 0;
#X connect 32 0 41 0;
#X connect 33 0 35 0;
#X connect 34 0 23 0;
#X connect 35 0 31 0;
#X connect 35 0 40 0;
#X connect 36 0 31 0;
#X connect 37 0 27 0;
#X connect 38 0 35 1;
#X connect 39 0 38 0;
#X connect 39 0 36 0;
#X connect 40 0 35 1;
#X connect 41 0 32 1;
#X connect 42 0 24 0;
#X connect 43 0 26 0;
#X connect 44 0 5 0;
#X connect 45 0 27 0;
#X connect 47 0 56 0;
#X connect 48 0 57 0;
#X connect 49 1 66 1;
#X connect 50 0 49 0;
#X connect 51 0 53 0;
#X connect 51 0 58 0;
#X connect 51 0 67 0;
#X connect 52 0 66 0;
#X connect 53 0 54 0;
#X connect 53 0 63 0;
#X connect 54 0 52 0;
#X connect 54 0 56 1;
#X connect 55 0 46 0;
#X connect 56 0 52 0;
#X connect 56 0 65 0;
#X connect 57 0 59 0;
#X connect 58 0 47 0;
#X connect 59 0 55 0;
#X connect 59 0 64 0;
#X connect 60 0 55 0;
#X connect 61 0 51 0;
#X connect 62 0 59 1;
#X connect 63 0 62 0;
#X connect 63 0 60 0;
#X connect 64 0 59 1;
#X connect 65 0 56 1;
#X connect 66 0 48 0;
#X connect 67 0 50 0;
#X connect 68 0 51 0;
#X restore 1346 312 pd DX17;
#N canvas 1096 191 601 712 DY17 0;
#X obj 411 487 outlet;
#X obj 405 175 bng 19 250 50 0 empty empty empty 0 -10 0 12 #fcfcfc #000000 #000000;
#X obj 483 219 + 0.1;
#X obj 413 312 <=;
#X floatatom 413 336 5 0 0 0 - - - 0;
#X obj 491 283 t b f;
#X floatatom 588 259 5 0 0 0 - - - 0;
#X obj 407 95 tgl 19 0 empty empty empty 0 -10 0 12 #fcfcfc #000000 #000000 0 1;
#X floatatom 390 265 5 0 0 0 - - - 0;
#X obj 332 133 sel 0;
#X floatatom 356 186 5 0 0 0 - - - 0;
#X floatatom 414 459 5 0 0 0 - - - 0;
#X obj 398 220 f;
#X floatatom 335 419 5 0 0 0 - - - 0;
#X obj 412 376 sel 1;
#X obj 406 138 metro 5;
#X obj 417 422 f;
#X floatatom 311 325 5 0 0 0 - - - 0;
#X obj 413 58 inlet;
#X msg 590 228 6;
#X msg 317 250 -12;
#X obj 467 416 + 0.1;
#X obj 786 497 outlet;
#X obj 780 185 bng 19 250 50 0 empty empty empty 0 -10 0 12 #fcfcfc #000000 #000000;
#X obj 858 229 + 0.1;
#X obj 788 322 <=;
#X floatatom 788 346 5 0 0 0 - - - 0;
#X obj 866 293 t b f;
#X floatatom 963 269 5 0 0 0 - - - 0;
#X obj 782 105 tgl 19 0 empty empty empty 0 -10 0 12 #fcfcfc #000000 #000000 0 1;
#X floatatom 765 275 5 0 0 0 - - - 0;
#X obj 707 143 sel 0;
#X floatatom 731 196 5 0 0 0 - - - 0;
#X floatatom 789 469 5 0 0 0 - - - 0;
#X obj 773 230 f;
#X floatatom 710 429 5 0 0 0 - - - 0;
#X obj 787 386 sel 1;
#X obj 781 148 metro 5;
#X obj 792 432 f;
#X floatatom 686 335 5 0 0 0 - - - 0;
#X obj 788 68 inlet;
#X msg 965 238 6;
#X msg 692 260 -12;
#X obj 842 426 + 0.1;
#X obj 481 53 r pattern00;
#X obj 870 71 r pattern02;
#X connect 1 0 12 0;
#X connect 2 0 12 1;
#X connect 3 0 4 0;
#X connect 4 0 14 0;
#X connect 5 1 3 1;
#X connect 6 0 5 0;
#X connect 7 0 9 0;
#X connect 7 0 15 0;
#X connect 7 0 19 0;
#X connect 8 0 3 0;
#X connect 9 0 10 0;
#X connect 9 0 20 0;
#X connect 10 0 8 0;
#X connect 10 0 12 1;
#X connect 11 0 0 0;
#X connect 12 0 2 0;
#X connect 12 0 8 0;
#X connect 13 0 11 0;
#X connect 14 0 16 0;
#X connect 15 0 1 0;
#X connect 16 0 11 0;
#X connect 16 0 21 0;
#X connect 17 0 16 1;
#X connect 18 0 7 0;
#X connect 19 0 6 0;
#X connect 20 0 17 0;
#X connect 20 0 13 0;
#X connect 21 0 16 1;
#X connect 23 0 34 0;
#X connect 24 0 34 1;
#X connect 25 0 26 0;
#X connect 26 0 36 0;
#X connect 27 1 25 1;
#X connect 28 0 27 0;
#X connect 29 0 31 0;
#X connect 29 0 37 0;
#X connect 29 0 41 0;
#X connect 30 0 25 0;
#X connect 31 0 32 0;
#X connect 31 0 42 0;
#X connect 32 0 30 0;
#X connect 32 0 34 1;
#X connect 33 0 22 0;
#X connect 34 0 24 0;
#X connect 34 0 30 0;
#X connect 35 0 33 0;
#X connect 36 0 38 0;
#X connect 37 0 23 0;
#X connect 38 0 33 0;
#X connect 38 0 43 0;
#X connect 39 0 38 1;
#X connect 40 0 29 0;
#X connect 41 0 28 0;
#X connect 42 0 39 0;
#X connect 42 0 35 0;
#X connect 43 0 38 1;
#X connect 44 0 7 0;
#X connect 45 0 29 0;
#X restore 1402 310 pd DY17;
#N canvas 968 106 1920 944 DX18 0;
#X obj 411 487 outlet;
#X obj 405 175 bng 19 250 50 0 empty empty empty 0 -10 0 12 #fcfcfc #000000 #000000;
#X floatatom 413 336 5 0 0 0 - - - 0;
#X obj 491 283 t b f;
#X floatatom 588 259 5 0 0 0 - - - 0;
#X obj 407 95 tgl 19 0 empty empty empty 0 -10 0 12 #fcfcfc #000000 #000000 0 1;
#X floatatom 390 265 5 0 0 0 - - - 0;
#X obj 332 133 sel 0;
#X floatatom 356 186 5 0 0 0 - - - 0;
#X floatatom 414 459 5 0 0 0 - - - 0;
#X obj 398 220 f;
#X obj 412 376 sel 1;
#X obj 406 138 metro 5;
#X obj 417 422 f;
#X floatatom 335 419 5 0 0 0 - - - 0;
#X obj 402 50 inlet;
#X floatatom 311 325 5 0 0 0 - - - 0;
#X obj 483 219 - 0.1;
#X obj 413 312 >=;
#X msg 590 228 -14;
#X msg 309 241 -7;
#X obj 469 415 + 0.1;
#X obj 803 496 outlet;
#X obj 797 184 bng 19 250 50 0 empty empty empty 0 -10 0 12 #fcfcfc #000000 #000000;
#X floatatom 805 345 5 0 0 0 - - - 0;
#X obj 883 292 t b f;
#X floatatom 980 268 5 0 0 0 - - - 0;
#X obj 799 104 tgl 19 0 empty empty empty 0 -10 0 12 #fcfcfc #000000 #000000 0 1;
#X floatatom 782 274 5 0 0 0 - - - 0;
#X obj 724 142 sel 0;
#X floatatom 748 195 5 0 0 0 - - - 0;
#X floatatom 806 468 5 0 0 0 - - - 0;
#X obj 790 229 f;
#X obj 804 385 sel 1;
#X obj 798 147 metro 5;
#X obj 809 431 f;
#X floatatom 727 428 5 0 0 0 - - - 0;
#X obj 794 59 inlet;
#X floatatom 703 334 5 0 0 0 - - - 0;
#X obj 875 228 - 0.1;
#X obj 805 321 >=;
#X msg 982 237 -14;
#X msg 701 250 -7;
#X obj 861 424 + 0.1;
#X obj 463 48 r pattern00;
#X obj 840 60 r pattern01;
#X obj 1213 509 outlet;
#X obj 1207 197 bng 19 250 50 0 empty empty empty 0 -10 0 12 #fcfcfc #000000 #000000;
#X floatatom 1215 358 5 0 0 0 - - - 0;
#X obj 1293 305 t b f;
#X floatatom 1390 281 5 0 0 0 - - - 0;
#X obj 1209 117 tgl 19 0 empty empty empty 0 -10 0 12 #fcfcfc #000000 #000000 0 1;
#X floatatom 1192 287 5 0 0 0 - - - 0;
#X obj 1134 155 sel 0;
#X floatatom 1158 208 5 0 0 0 - - - 0;
#X floatatom 1216 481 5 0 0 0 - - - 0;
#X obj 1200 242 f;
#X obj 1214 398 sel 1;
#X obj 1208 160 metro 5;
#X obj 1219 444 f;
#X floatatom 1137 441 5 0 0 0 - - - 0;
#X obj 1204 72 inlet;
#X floatatom 1113 347 5 0 0 0 - - - 0;
#X obj 1285 241 - 0.1;
#X obj 1215 334 >=;
#X msg 1392 250 -14;
#X msg 1111 263 -7;
#X obj 1271 437 + 0.1;
#X obj 1250 73 r pattern03;
#X connect 1 0 10 0;
#X connect 2 0 11 0;
#X connect 3 1 18 1;
#X connect 4 0 3 0;
#X connect 5 0 7 0;
#X connect 5 0 12 0;
#X connect 5 0 19 0;
#X connect 6 0 18 0;
#X connect 7 0 8 0;
#X connect 7 0 20 0;
#X connect 8 0 6 0;
#X connect 8 0 10 1;
#X connect 9 0 0 0;
#X connect 10 0 6 0;
#X connect 10 0 17 0;
#X connect 11 0 13 0;
#X connect 12 0 1 0;
#X connect 13 0 9 0;
#X connect 13 0 21 0;
#X connect 14 0 9 0;
#X connect 15 0 5 0;
#X connect 16 0 13 1;
#X connect 17 0 10 1;
#X connect 18 0 2 0;
#X connect 19 0 4 0;
#X connect 20 0 16 0;
#X connect 20 0 14 0;
#X connect 21 0 13 1;
#X connect 23 0 32 0;
#X connect 24 0 33 0;
#X connect 25 1 40 1;
#X connect 26 0 25 0;
#X connect 27 0 29 0;
#X connect 27 0 34 0;
#X connect 27 0 41 0;
#X connect 28 0 40 0;
#X connect 29 0 30 0;
#X connect 29 0 42 0;
#X connect 30 0 28 0;
#X connect 30 0 32 1;
#X connect 31 0 22 0;
#X connect 32 0 28 0;
#X connect 32 0 39 0;
#X connect 33 0 35 0;
#X connect 34 0 23 0;
#X connect 35 0 31 0;
#X connect 35 0 43 0;
#X connect 36 0 31 0;
#X connect 37 0 27 0;
#X connect 38 0 35 1;
#X connect 39 0 32 1;
#X connect 40 0 24 0;
#X connect 41 0 26 0;
#X connect 42 0 38 0;
#X connect 42 0 36 0;
#X connect 43 0 35 1;
#X connect 44 0 5 0;
#X connect 45 0 27 0;
#X connect 47 0 56 0;
#X connect 48 0 57 0;
#X connect 49 1 64 1;
#X connect 50 0 49 0;
#X connect 51 0 53 0;
#X connect 51 0 58 0;
#X connect 51 0 65 0;
#X connect 52 0 64 0;
#X connect 53 0 54 0;
#X connect 53 0 66 0;
#X connect 54 0 52 0;
#X connect 54 0 56 1;
#X connect 55 0 46 0;
#X connect 56 0 52 0;
#X connect 56 0 63 0;
#X connect 57 0 59 0;
#X connect 58 0 47 0;
#X connect 59 0 55 0;
#X connect 59 0 67 0;
#X connect 60 0 55 0;
#X connect 61 0 51 0;
#X connect 62 0 59 1;
#X connect 63 0 56 1;
#X connect 64 0 48 0;
#X connect 65 0 50 0;
#X connect 66 0 62 0;
#X connect 66 0 60 0;
#X connect 67 0 59 1;
#X connect 68 0 51 0;
#X restore 1531 313 pd DX18;
#N canvas 946 174 601 683 DY18 0;
#X obj 411 487 outlet;
#X obj 405 175 bng 19 250 50 0 empty empty empty 0 -10 0 12 #fcfcfc #000000 #000000;
#X obj 483 219 + 0.1;
#X obj 413 312 <=;
#X floatatom 413 336 5 0 0 0 - - - 0;
#X obj 491 283 t b f;
#X floatatom 588 259 5 0 0 0 - - - 0;
#X obj 407 95 tgl 19 0 empty empty empty 0 -10 0 12 #fcfcfc #000000 #000000 0 1;
#X floatatom 390 265 5 0 0 0 - - - 0;
#X obj 332 133 sel 0;
#X floatatom 356 186 5 0 0 0 - - - 0;
#X floatatom 414 459 5 0 0 0 - - - 0;
#X obj 398 220 f;
#X floatatom 335 419 5 0 0 0 - - - 0;
#X obj 412 376 sel 1;
#X obj 406 138 metro 5;
#X obj 417 422 f;
#X floatatom 311 325 5 0 0 0 - - - 0;
#X obj 413 58 inlet;
#X msg 590 228 6;
#X obj 467 416 + 0.1;
#X msg 317 250 -12;
#X obj 749 501 outlet;
#X obj 743 189 bng 19 250 50 0 empty empty empty 0 -10 0 12 #fcfcfc #000000 #000000;
#X obj 821 233 + 0.1;
#X obj 751 326 <=;
#X floatatom 751 350 5 0 0 0 - - - 0;
#X obj 829 297 t b f;
#X floatatom 926 273 5 0 0 0 - - - 0;
#X obj 745 109 tgl 19 0 empty empty empty 0 -10 0 12 #fcfcfc #000000 #000000 0 1;
#X floatatom 728 279 5 0 0 0 - - - 0;
#X obj 670 147 sel 0;
#X floatatom 694 200 5 0 0 0 - - - 0;
#X floatatom 752 473 5 0 0 0 - - - 0;
#X obj 736 234 f;
#X floatatom 673 433 5 0 0 0 - - - 0;
#X obj 750 390 sel 1;
#X obj 744 152 metro 5;
#X obj 755 436 f;
#X floatatom 649 339 5 0 0 0 - - - 0;
#X obj 751 72 inlet;
#X msg 928 242 6;
#X obj 805 430 + 0.1;
#X msg 655 264 -12;
#X obj 488 52 r pattern00;
#X obj 820 74 r pattern02;
#X connect 1 0 12 0;
#X connect 2 0 12 1;
#X connect 3 0 4 0;
#X connect 4 0 14 0;
#X connect 5 1 3 1;
#X connect 6 0 5 0;
#X connect 7 0 9 0;
#X connect 7 0 15 0;
#X connect 7 0 19 0;
#X connect 8 0 3 0;
#X connect 9 0 10 0;
#X connect 9 0 21 0;
#X connect 10 0 8 0;
#X connect 10 0 12 1;
#X connect 11 0 0 0;
#X connect 12 0 2 0;
#X connect 12 0 8 0;
#X connect 13 0 11 0;
#X connect 14 0 16 0;
#X connect 15 0 1 0;
#X connect 16 0 11 0;
#X connect 16 0 20 0;
#X connect 17 0 16 1;
#X connect 18 0 7 0;
#X connect 19 0 6 0;
#X connect 20 0 16 1;
#X connect 21 0 17 0;
#X connect 21 0 13 0;
#X connect 23 0 34 0;
#X connect 24 0 34 1;
#X connect 25 0 26 0;
#X connect 26 0 36 0;
#X connect 27 1 25 1;
#X connect 28 0 27 0;
#X connect 29 0 31 0;
#X connect 29 0 37 0;
#X connect 29 0 41 0;
#X connect 30 0 25 0;
#X connect 31 0 32 0;
#X connect 31 0 43 0;
#X connect 32 0 30 0;
#X connect 32 0 34 1;
#X connect 33 0 22 0;
#X connect 34 0 24 0;
#X connect 34 0 30 0;
#X connect 35 0 33 0;
#X connect 36 0 38 0;
#X connect 37 0 23 0;
#X connect 38 0 33 0;
#X connect 38 0 42 0;
#X connect 39 0 38 1;
#X connect 40 0 29 0;
#X connect 41 0 28 0;
#X connect 42 0 38 1;
#X connect 43 0 39 0;
#X connect 43 0 35 0;
#X connect 44 0 7 0;
#X connect 45 0 29 0;
#X restore 1587 311 pd DY18;
#X obj 94 445 scaleXYZ;
#X obj 292 447 scaleXYZ;
#X obj 510 492 rotateXYZ;
#X obj 512 541 colorRGB;
#X obj 509 617 teapot;
#X obj 507 453 scaleXYZ;
#X obj 684 490 rotateXYZ;
#X obj 686 539 colorRGB;
#X obj 683 615 teapot;
#X obj 681 451 scaleXYZ;
#X obj 910 499 rotateXYZ;
#X obj 912 548 colorRGB;
#X obj 909 624 teapot;
#X obj 907 460 scaleXYZ;
#X obj 1102 499 rotateXYZ;
#X obj 1104 548 colorRGB;
#X obj 1101 624 teapot;
#X obj 1099 460 scaleXYZ;
#X obj 1298 499 rotateXYZ;
#X obj 1300 548 colorRGB;
#X obj 1297 624 teapot;
#X obj 1295 460 scaleXYZ;
#X obj 1472 504 rotateXYZ;
#X obj 1474 553 colorRGB;
#X obj 1471 629 teapot;
#X obj 1469 465 scaleXYZ;
#X floatatom 853 271 5 0 0 0 - - - 0;
#X obj 852 245 line;
#X msg 804 214 0.5 10;
#X floatatom 781 108 5 0 0 0 - - - 0;
#X obj 871 157 sel 2;
#X obj 759 157 sel 0;
#X obj 827 179 bng 19 250 50 0 empty empty empty 0 -10 0 12 #fcfcfc #000000 #000000;
#X obj 923 179 delay 10;
#X obj 791 74 random 3;
#X obj 1025 54 bng 30 250 50 0 empty empty empty 0 -10 0 12 #c6ffc7 #000000 #000000;
#X obj 791 45 metro 400;
#X msg 923 203 1.5 100;
#X connect 1 0 2 0;
#X connect 3 0 2 0;
#X connect 4 0 2 0;
#X connect 5 0 9 0;
#X connect 6 0 7 0;
#X connect 7 0 8 0;
#X connect 9 0 45 0;
#X connect 10 0 9 1;
#X connect 10 1 9 1;
#X connect 10 2 9 1;
#X connect 11 0 9 2;
#X connect 11 1 9 2;
#X connect 12 0 81 0;
#X connect 13 0 17 0;
#X connect 14 0 15 0;
#X connect 15 0 16 0;
#X connect 17 0 46 0;
#X connect 18 0 17 1;
#X connect 18 1 17 1;
#X connect 18 2 17 1;
#X connect 19 0 17 2;
#X connect 19 1 17 2;
#X connect 20 0 21 0;
#X connect 21 0 54 0;
#X connect 22 0 25 0;
#X connect 23 0 25 2;
#X connect 23 1 25 2;
#X connect 24 0 25 1;
#X connect 24 1 25 1;
#X connect 25 0 50 0;
#X connect 26 0 27 0;
#X connect 27 0 70 0;
#X connect 28 0 29 0;
#X connect 29 0 66 0;
#X connect 30 0 32 0;
#X connect 31 0 33 0;
#X connect 32 0 62 0;
#X connect 33 0 58 0;
#X connect 34 0 21 1;
#X connect 34 1 21 1;
#X connect 35 0 21 2;
#X connect 35 1 21 2;
#X connect 37 0 33 1;
#X connect 37 1 33 1;
#X connect 38 0 33 2;
#X connect 38 1 33 2;
#X connect 39 0 32 1;
#X connect 39 1 32 1;
#X connect 40 0 32 2;
#X connect 40 1 32 2;
#X connect 41 0 29 1;
#X connect 41 1 29 1;
#X connect 42 0 29 2;
#X connect 42 1 29 2;
#X connect 43 0 27 1;
#X connect 43 1 27 1;
#X connect 44 0 27 2;
#X connect 44 1 27 2;
#X connect 45 0 6 0;
#X connect 46 0 14 0;
#X connect 47 0 48 0;
#X connect 48 0 49 0;
#X connect 50 0 47 0;
#X connect 51 0 52 0;
#X connect 52 0 53 0;
#X connect 54 0 51 0;
#X connect 55 0 56 0;
#X connect 56 0 57 0;
#X connect 58 0 55 0;
#X connect 59 0 60 0;
#X connect 60 0 61 0;
#X connect 62 0 59 0;
#X connect 63 0 64 0;
#X connect 64 0 65 0;
#X connect 66 0 63 0;
#X connect 67 0 68 0;
#X connect 68 0 69 0;
#X connect 70 0 67 0;
#X connect 71 0 45 1;
#X connect 71 0 62 1;
#X connect 71 0 58 1;
#X connect 71 0 54 1;
#X connect 71 0 50 1;
#X connect 71 0 46 1;
#X connect 71 0 45 2;
#X connect 71 0 62 2;
#X connect 71 0 58 2;
#X connect 71 0 54 2;
#X connect 71 0 50 2;
#X connect 71 0 46 2;
#X connect 71 0 45 3;
#X connect 71 0 62 3;
#X connect 71 0 58 3;
#X connect 71 0 54 3;
#X connect 71 0 50 3;
#X connect 71 0 46 3;
#X connect 71 0 66 1;
#X connect 71 0 70 1;
#X connect 71 0 66 2;
#X connect 71 0 70 2;
#X connect 71 0 66 3;
#X connect 71 0 70 3;
#X connect 72 0 71 0;
#X connect 73 0 72 0;
#X connect 74 0 75 0;
#X connect 74 0 76 0;
#X connect 75 0 77 0;
#X connect 76 0 77 0;
#X connect 77 0 78 0;
#X connect 77 0 73 0;
#X connect 78 0 82 0;
#X connect 79 0 74 0;
#X connect 80 0 36 0;
#X connect 81 0 79 0;
#X connect 82 0 72 0;
