#N canvas 0 11 1920 944 12;
#X obj 62 653 r OFF;
#X obj 1138 165 bng 19 250 50 0 empty empty empty 0 -10 0 12 #fcfcfc #000000 #000000;
#X obj 1197 242 + 1;
#X obj 1044 253 % 8;
#X floatatom 1045 345 5 0 0 0 - - - 0;
#X obj 180 792 dac~;
#X obj 1132 242 int 1;
#X msg 1018 200 -1;
#X obj 1012 145 bng 19 250 50 0 empty empty empty 0 -10 0 12 #fcfcfc #000000 #000000;
#X obj 1046 106 sel 0;
#X obj 1089 70 tgl 19 0 empty empty empty 0 -10 0 12 #fcfcfc #000000 #000000 0 1;
#X obj 964 106 loadbang;
#X obj 825 432 sel 1;
#X obj 869 432 sel 2;
#X obj 916 432 sel 3;
#X obj 961 432 sel 4;
#X obj 1011 432 sel 5;
#X obj 1056 432 sel 6;
#X obj 1102 432 sel 7;
#X obj 1147 432 sel 8;
#X obj 1045 289 + 1;
#X floatatom 1132 307 5 0 0 0 - - - 0;
#X obj 825 483 bng 19 250 50 0 empty empty empty 0 -10 0 12 #fcfcfc #000000 #000000;
#X obj 869 483 bng 19 250 50 0 empty empty empty 0 -10 0 12 #fcfcfc #000000 #000000;
#X obj 916 483 bng 19 250 50 0 empty empty empty 0 -10 0 12 #fcfcfc #000000 #000000;
#X obj 961 483 bng 19 250 50 0 empty empty empty 0 -10 0 12 #fcfcfc #000000 #000000;
#X obj 1011 483 bng 19 250 50 0 empty empty empty 0 -10 0 12 #fcfcfc #000000 #000000;
#X obj 1056 483 bng 19 250 50 0 empty empty empty 0 -10 0 12 #fcfcfc #000000 #000000;
#X obj 1102 483 bng 19 250 50 0 empty empty empty 0 -10 0 12 #fcfcfc #000000 #000000;
#X obj 1147 483 bng 19 250 50 0 empty empty empty 0 -10 0 12 #fcfcfc #000000 #000000;
#X obj 825 534 s A;
#X obj 869 534 s B;
#X obj 916 534 s C;
#X obj 961 534 s D;
#X obj 1011 534 s E;
#X obj 1056 534 s F;
#X obj 1102 534 s G;
#X obj 1147 534 s H;
#X obj 901 627 bng 19 250 50 0 empty empty empty 0 -10 0 12 #fcfcfc #000000 #000000;
#X obj 951 627 bng 19 250 50 0 empty empty empty 0 -10 0 12 #fcfcfc #000000 #000000;
#X obj 995 627 bng 19 250 50 0 empty empty empty 0 -10 0 12 #fcfcfc #000000 #000000;
#X obj 1044 627 bng 19 250 50 0 empty empty empty 0 -10 0 12 #fcfcfc #000000 #000000;
#X obj 803 576 r A;
#X obj 803 627 bng 19 250 50 0 empty empty empty 0 -10 0 12 #fcfcfc #000000 #000000;
#X obj 853 627 bng 19 250 50 0 empty empty empty 0 -10 0 12 #fcfcfc #000000 #000000;
#X obj 1090 627 bng 19 250 50 0 empty empty empty 0 -10 0 12 #fcfcfc #000000 #000000;
#X obj 1139 627 bng 19 250 50 0 empty empty empty 0 -10 0 12 #fcfcfc #000000 #000000;
#X obj 853 576 r B;
#X obj 901 576 r C;
#X obj 951 576 r D;
#X obj 995 576 r E;
#X obj 1044 576 r F;
#X obj 1139 576 r H;
#X obj 1090 576 r G;
#X obj 1087 30 r ON;
#X obj 1138 106 metro 100;
#X obj 407 720 line~;
#X obj 406 747 sqrt~;
#X obj 405 775 *~ 20;
#X obj 404 805 cos~;
#X obj 399 850 dac~;
#X obj 496 720 line~;
#X obj 495 747 sqrt~;
#X obj 493 805 cos~;
#X obj 488 850 dac~;
#X obj 494 775 *~ 500;
#X obj 1594 777 dac~;
#X obj 710 732 line~;
#X obj 709 759 sqrt~;
#X obj 708 787 *~ 20;
#X obj 707 817 cos~;
#X obj 702 862 dac~;
#X floatatom 1194 365 5 0 0 0 - - - 0;
#X obj 1197 392 sel 1;
#X obj 1201 416 bng 19 250 50 0 empty empty empty 0 -10 0 12 #fcfcfc #000000 #000000;
#X obj 1202 444 s pattern;
#X obj 1194 337 + 1;
#X msg 710 705 0 \, 1 600;
#X msg 407 693 0 \, 1 600;
#X obj 1586 654 dac~;
#X obj 1196 307 % 32;
#X obj 1755 326 metro 450;
#X obj 1765 375 f 250;
#X obj 1738 445 vline~;
#X obj 1601 363 phasor~;
#X msg 1737 410 0.5 \, 1 5 \, 0.5 60 5 \, 0 \$1 65;
#X obj 1595 445 *~;
#X obj 1665 444 *~;
#X obj 1601 387 expr~ $v1 > 0.5;
#X obj 1595 495 dac~;
#X floatatom 1601 340 5 0 0 0 - - - 0;
#X floatatom 1834 366 5 0 0 0 - - - 0;
#X obj 1321 87 r pattern;
#X obj 1321 113 random 100;
#X obj 1321 137 < 100;
#X obj 1320 165 tgl 19 0 empty empty empty 0 -10 0 12 #fcfcfc #000000 #000000 0 1;
#X obj 1286 192 spigot;
#X obj 1284 221 bng 19 250 50 0 empty empty empty 0 -10 0 12 #fcfcfc #000000 #000000;
#X obj 1289 87 r A;
#X obj 1289 138 bng 19 250 50 0 empty empty empty 0 -10 0 12 #fcfcfc #000000 #000000;
#X obj 1439 88 r pattern;
#X obj 1439 114 random 100;
#X obj 1438 166 tgl 19 0 empty empty empty 0 -10 0 12 #fcfcfc #000000 #000000 0 1;
#X obj 1404 193 spigot;
#X obj 1402 222 bng 19 250 50 0 empty empty empty 0 -10 0 12 #fcfcfc #000000 #000000;
#X obj 1407 139 bng 19 250 50 0 empty empty empty 0 -10 0 12 #fcfcfc #000000 #000000;
#X obj 1559 88 r pattern;
#X obj 1559 114 random 100;
#X obj 1558 166 tgl 19 0 empty empty empty 0 -10 0 12 #fcfcfc #000000 #000000 0 1;
#X obj 1524 193 spigot;
#X obj 1522 222 bng 19 250 50 0 empty empty empty 0 -10 0 12 #fcfcfc #000000 #000000;
#X obj 1527 139 bng 19 250 50 0 empty empty empty 0 -10 0 12 #fcfcfc #000000 #000000;
#X obj 1677 88 r pattern;
#X obj 1677 114 random 100;
#X obj 1677 138 < 100;
#X obj 1676 166 tgl 19 0 empty empty empty 0 -10 0 12 #fcfcfc #000000 #000000 0 1;
#X obj 1642 193 spigot;
#X obj 1640 222 bng 19 250 50 0 empty empty empty 0 -10 0 12 #fcfcfc #000000 #000000;
#X obj 1645 139 bng 19 250 50 0 empty empty empty 0 -10 0 12 #fcfcfc #000000 #000000;
#X obj 2028 95 r pattern;
#X obj 2028 119 random 100;
#X obj 2028 143 < 100;
#X obj 2027 171 tgl 19 0 empty empty empty 0 -10 0 12 #fcfcfc #000000 #000000 0 1;
#X obj 1993 198 spigot;
#X obj 1991 227 bng 19 250 50 0 empty empty empty 0 -10 0 12 #fcfcfc #000000 #000000;
#X obj 1996 144 bng 19 250 50 0 empty empty empty 0 -10 0 12 #fcfcfc #000000 #000000;
#X obj 1792 90 r pattern;
#X obj 1792 116 random 100;
#X obj 1791 168 tgl 19 0 empty empty empty 0 -10 0 12 #fcfcfc #000000 #000000 0 1;
#X obj 1757 195 spigot;
#X obj 1755 224 bng 19 250 50 0 empty empty empty 0 -10 0 12 #fcfcfc #000000 #000000;
#X obj 1760 141 bng 19 250 50 0 empty empty empty 0 -10 0 12 #fcfcfc #000000 #000000;
#X obj 1911 90 r pattern;
#X obj 1911 116 random 100;
#X obj 1910 168 tgl 19 0 empty empty empty 0 -10 0 12 #fcfcfc #000000 #000000 0 1;
#X obj 1876 195 spigot;
#X obj 1874 224 bng 19 250 50 0 empty empty empty 0 -10 0 12 #fcfcfc #000000 #000000;
#X obj 1879 141 bng 19 250 50 0 empty empty empty 0 -10 0 12 #fcfcfc #000000 #000000;
#X obj 2146 96 r pattern;
#X obj 2146 122 random 100;
#X obj 2146 146 < 100;
#X obj 2145 174 tgl 19 0 empty empty empty 0 -10 0 12 #fcfcfc #000000 #000000 0 1;
#X obj 2111 201 spigot;
#X obj 2109 230 bng 19 250 50 0 empty empty empty 0 -10 0 12 #fcfcfc #000000 #000000;
#X obj 2114 147 bng 19 250 50 0 empty empty empty 0 -10 0 12 #fcfcfc #000000 #000000;
#X obj 1407 88 r B;
#X obj 1527 88 r C;
#X obj 1645 88 r D;
#X obj 1760 90 r E;
#X obj 1879 90 r F;
#X obj 1996 93 r G;
#X obj 2114 96 r H;
#X obj 1485 311 r OFF;
#X msg 1491 345 0;
#X msg 1534 313 90;
#X obj 1532 292 r ON;
#X obj 1595 469 *~ 0.9;
#X obj 1559 138 < 10;
#X obj 1792 140 < 10;
#X obj 1911 140 < 10;
#X obj 1439 138 < 10;
#X obj 288 655 sel 1;
#X obj 127 654 sel 0;
#X obj 312 592 + 1;
#X obj 247 592 int 1;
#X obj 221 617 % 2;
#X obj 252 559 bng 19 250 50 0 empty empty empty 0 -10 0 12 #fcfcfc #000000 #000000;
#X obj 258 462 r ON;
#X obj 260 488 tgl 19 0 empty empty empty 0 -10 0 12 #fcfcfc #000000 #000000 0 1;
#N canvas 0 76 1920 944 s1 0;
#X obj 244 432 osc~;
#X obj 244 381 +~;
#X obj 300 408 *~;
#X obj 247 456 *~ 0.5;
#X obj 300 357 osc~ 104;
#X obj 344 432 osc~;
#X obj 344 381 +~;
#X obj 392 408 *~;
#X obj 343 459 *~ 0.5;
#X obj 392 357 osc~;
#X floatatom 392 307 5 0 0 0 - - - 0;
#X floatatom 347 307 5 0 0 0 - - - 0;
#X floatatom 434 307 5 0 0 0 - - - 0;
#X floatatom 245 307 5 0 0 0 - - - 0;
#X floatatom 300 307 5 0 0 0 - - - 0;
#X msg 203 278 0;
#X msg 248 278 0 \, 204;
#X msg 316 280 0 \, 175;
#X msg 383 280 0 \, 207;
#X msg 467 279 0 \, 52;
#X msg 536 278 0 \, 800;
#X obj 191 200 inlet;
#X obj 254 202 inlet;
#X obj 310 205 inlet;
#X obj 382 215 inlet;
#X obj 470 217 inlet;
#X obj 537 215 inlet;
#X obj 234 522 outlet~;
#X obj 338 526 outlet~;
#X connect 0 0 3 0;
#X connect 1 0 0 0;
#X connect 2 0 1 1;
#X connect 3 0 27 0;
#X connect 4 0 2 0;
#X connect 5 0 8 0;
#X connect 6 0 5 0;
#X connect 7 0 6 1;
#X connect 8 0 28 0;
#X connect 9 0 7 0;
#X connect 10 0 9 0;
#X connect 11 0 6 0;
#X connect 12 0 7 1;
#X connect 13 0 1 0;
#X connect 14 0 2 1;
#X connect 15 0 13 0;
#X connect 15 0 14 0;
#X connect 15 0 11 0;
#X connect 15 0 12 0;
#X connect 15 0 10 0;
#X connect 16 0 13 0;
#X connect 17 0 14 0;
#X connect 18 0 11 0;
#X connect 19 0 10 0;
#X connect 20 0 12 0;
#X connect 21 0 15 0;
#X connect 22 0 16 0;
#X connect 23 0 17 0;
#X connect 24 0 18 0;
#X connect 25 0 19 0;
#X connect 26 0 20 0;
#X restore 87 739 pd s1;
#X f 31;
#N canvas 4 38 1920 944 r1 0;
#X obj 1421 22 r pattern;
#X obj 1421 48 random 100;
#X obj 1421 72 < 100;
#X obj 1420 100 tgl 19 0 empty empty empty 0 -10 0 12 #fcfcfc #000000 #000000 0 1;
#X obj 1386 127 spigot;
#X obj 1384 156 bng 19 250 50 0 empty empty empty 0 -10 0 12 #fcfcfc #000000 #000000;
#X obj 1389 22 r A;
#X obj 1389 73 bng 19 250 50 0 empty empty empty 0 -10 0 12 #fcfcfc #000000 #000000;
#X obj 1539 23 r pattern;
#X obj 1539 49 random 100;
#X obj 1538 101 tgl 19 0 empty empty empty 0 -10 0 12 #fcfcfc #000000 #000000 0 1;
#X obj 1504 128 spigot;
#X obj 1502 157 bng 19 250 50 0 empty empty empty 0 -10 0 12 #fcfcfc #000000 #000000;
#X obj 1507 74 bng 19 250 50 0 empty empty empty 0 -10 0 12 #fcfcfc #000000 #000000;
#X obj 1659 23 r pattern;
#X obj 1659 49 random 100;
#X obj 1659 73 < 100;
#X obj 1658 101 tgl 19 0 empty empty empty 0 -10 0 12 #fcfcfc #000000 #000000 0 1;
#X obj 1624 128 spigot;
#X obj 1622 157 bng 19 250 50 0 empty empty empty 0 -10 0 12 #fcfcfc #000000 #000000;
#X obj 1627 74 bng 19 250 50 0 empty empty empty 0 -10 0 12 #fcfcfc #000000 #000000;
#X obj 1777 23 r pattern;
#X obj 1777 49 random 100;
#X obj 1777 73 < 100;
#X obj 1776 101 tgl 19 0 empty empty empty 0 -10 0 12 #fcfcfc #000000 #000000 0 1;
#X obj 1742 128 spigot;
#X obj 1740 157 bng 19 250 50 0 empty empty empty 0 -10 0 12 #fcfcfc #000000 #000000;
#X obj 1745 74 bng 19 250 50 0 empty empty empty 0 -10 0 12 #fcfcfc #000000 #000000;
#X obj 2128 30 r pattern;
#X obj 2128 54 random 100;
#X obj 2128 78 < 100;
#X obj 2127 106 tgl 19 0 empty empty empty 0 -10 0 12 #fcfcfc #000000 #000000 0 1;
#X obj 2093 133 spigot;
#X obj 2091 162 bng 19 250 50 0 empty empty empty 0 -10 0 12 #fcfcfc #000000 #000000;
#X obj 2096 79 bng 19 250 50 0 empty empty empty 0 -10 0 12 #fcfcfc #000000 #000000;
#X obj 1892 25 r pattern;
#X obj 1892 51 random 100;
#X obj 1892 75 < 100;
#X obj 1891 103 tgl 19 0 empty empty empty 0 -10 0 12 #fcfcfc #000000 #000000 0 1;
#X obj 1857 130 spigot;
#X obj 1855 159 bng 19 250 50 0 empty empty empty 0 -10 0 12 #fcfcfc #000000 #000000;
#X obj 1860 76 bng 19 250 50 0 empty empty empty 0 -10 0 12 #fcfcfc #000000 #000000;
#X obj 2011 25 r pattern;
#X obj 2011 51 random 100;
#X obj 2010 103 tgl 19 0 empty empty empty 0 -10 0 12 #fcfcfc #000000 #000000 0 1;
#X obj 1976 130 spigot;
#X obj 1974 159 bng 19 250 50 0 empty empty empty 0 -10 0 12 #fcfcfc #000000 #000000;
#X obj 1979 76 bng 19 250 50 0 empty empty empty 0 -10 0 12 #fcfcfc #000000 #000000;
#X obj 2246 31 r pattern;
#X obj 2246 57 random 100;
#X obj 2246 81 < 100;
#X obj 2245 109 tgl 19 0 empty empty empty 0 -10 0 12 #fcfcfc #000000 #000000 0 1;
#X obj 2211 136 spigot;
#X obj 2209 165 bng 19 250 50 0 empty empty empty 0 -10 0 12 #fcfcfc #000000 #000000;
#X obj 2214 82 bng 19 250 50 0 empty empty empty 0 -10 0 12 #fcfcfc #000000 #000000;
#X obj 1770 240 line~;
#X obj 1769 267 sqrt~;
#X obj 1766 327 cos~;
#X msg 1760 208 0 \, 1 100;
#X obj 1767 297 *~ 50;
#X obj 1507 23 r B;
#X obj 1627 23 r C;
#X obj 1745 23 r D;
#X obj 1860 25 r E;
#X obj 1979 25 r F;
#X obj 2096 28 r G;
#X obj 2214 31 r H;
#X obj 1539 73 < 50;
#X obj 2011 75 < 50;
#X obj 1762 369 outlet~;
#X obj 1396 317 s r1;
#X connect 0 0 1 0;
#X connect 1 0 2 0;
#X connect 2 0 3 0;
#X connect 3 0 4 1;
#X connect 4 0 5 0;
#X connect 5 0 58 0;
#X connect 5 0 70 0;
#X connect 6 0 7 0;
#X connect 7 0 4 0;
#X connect 8 0 9 0;
#X connect 9 0 67 0;
#X connect 10 0 11 1;
#X connect 11 0 12 0;
#X connect 12 0 58 0;
#X connect 12 0 70 0;
#X connect 13 0 11 0;
#X connect 14 0 15 0;
#X connect 15 0 16 0;
#X connect 16 0 17 0;
#X connect 17 0 18 1;
#X connect 18 0 19 0;
#X connect 19 0 58 0;
#X connect 19 0 70 0;
#X connect 20 0 18 0;
#X connect 21 0 22 0;
#X connect 22 0 23 0;
#X connect 23 0 24 0;
#X connect 24 0 25 1;
#X connect 25 0 26 0;
#X connect 26 0 58 0;
#X connect 26 0 70 0;
#X connect 27 0 25 0;
#X connect 28 0 29 0;
#X connect 29 0 30 0;
#X connect 30 0 31 0;
#X connect 31 0 32 1;
#X connect 32 0 33 0;
#X connect 33 0 58 0;
#X connect 33 0 70 0;
#X connect 34 0 32 0;
#X connect 35 0 36 0;
#X connect 36 0 37 0;
#X connect 37 0 38 0;
#X connect 38 0 39 1;
#X connect 39 0 40 0;
#X connect 40 0 58 0;
#X connect 40 0 70 0;
#X connect 41 0 39 0;
#X connect 42 0 43 0;
#X connect 43 0 68 0;
#X connect 44 0 45 1;
#X connect 45 0 46 0;
#X connect 46 0 58 0;
#X connect 46 0 70 0;
#X connect 47 0 45 0;
#X connect 48 0 49 0;
#X connect 49 0 50 0;
#X connect 50 0 51 0;
#X connect 51 0 52 1;
#X connect 52 0 53 0;
#X connect 53 0 58 0;
#X connect 53 0 70 0;
#X connect 54 0 52 0;
#X connect 55 0 56 0;
#X connect 56 0 59 0;
#X connect 57 0 69 0;
#X connect 58 0 55 0;
#X connect 59 0 57 0;
#X connect 60 0 13 0;
#X connect 61 0 20 0;
#X connect 62 0 27 0;
#X connect 63 0 41 0;
#X connect 64 0 47 0;
#X connect 65 0 34 0;
#X connect 66 0 54 0;
#X connect 67 0 10 0;
#X connect 68 0 44 0;
#X restore 1587 623 pd r1;
#N canvas 76 76 1920 944 r2 0;
#X obj 570 448 line~;
#X obj 569 475 sqrt~;
#X obj 567 533 cos~;
#X obj 164 168 r pattern;
#X obj 164 194 random 100;
#X obj 164 218 < 100;
#X obj 163 246 tgl 19 0 empty empty empty 0 -10 0 12 #fcfcfc #000000 #000000 0 1;
#X obj 129 273 spigot;
#X obj 127 302 bng 19 250 50 0 empty empty empty 0 -10 0 12 #fcfcfc #000000 #000000;
#X obj 132 168 r A;
#X obj 132 219 bng 19 250 50 0 empty empty empty 0 -10 0 12 #fcfcfc #000000 #000000;
#X obj 282 169 r pattern;
#X obj 282 195 random 100;
#X obj 281 247 tgl 19 0 empty empty empty 0 -10 0 12 #fcfcfc #000000 #000000 0 1;
#X obj 247 274 spigot;
#X obj 245 303 bng 19 250 50 0 empty empty empty 0 -10 0 12 #fcfcfc #000000 #000000;
#X obj 250 220 bng 19 250 50 0 empty empty empty 0 -10 0 12 #fcfcfc #000000 #000000;
#X obj 402 169 r pattern;
#X obj 402 195 random 100;
#X obj 401 247 tgl 19 0 empty empty empty 0 -10 0 12 #fcfcfc #000000 #000000 0 1;
#X obj 367 274 spigot;
#X obj 365 303 bng 19 250 50 0 empty empty empty 0 -10 0 12 #fcfcfc #000000 #000000;
#X obj 370 220 bng 19 250 50 0 empty empty empty 0 -10 0 12 #fcfcfc #000000 #000000;
#X obj 520 169 r pattern;
#X obj 520 195 random 100;
#X obj 519 247 tgl 19 0 empty empty empty 0 -10 0 12 #fcfcfc #000000 #000000 0 1;
#X obj 485 274 spigot;
#X obj 483 303 bng 19 250 50 0 empty empty empty 0 -10 0 12 #fcfcfc #000000 #000000;
#X obj 488 220 bng 19 250 50 0 empty empty empty 0 -10 0 12 #fcfcfc #000000 #000000;
#X obj 871 176 r pattern;
#X obj 871 200 random 100;
#X obj 870 252 tgl 19 0 empty empty empty 0 -10 0 12 #fcfcfc #000000 #000000 0 1;
#X obj 836 279 spigot;
#X obj 834 308 bng 19 250 50 0 empty empty empty 0 -10 0 12 #fcfcfc #000000 #000000;
#X obj 839 225 bng 19 250 50 0 empty empty empty 0 -10 0 12 #fcfcfc #000000 #000000;
#X obj 635 171 r pattern;
#X obj 635 197 random 100;
#X obj 635 221 < 100;
#X obj 634 249 tgl 19 0 empty empty empty 0 -10 0 12 #fcfcfc #000000 #000000 0 1;
#X obj 600 276 spigot;
#X obj 598 305 bng 19 250 50 0 empty empty empty 0 -10 0 12 #fcfcfc #000000 #000000;
#X obj 603 222 bng 19 250 50 0 empty empty empty 0 -10 0 12 #fcfcfc #000000 #000000;
#X obj 754 171 r pattern;
#X obj 754 197 random 100;
#X obj 753 249 tgl 19 0 empty empty empty 0 -10 0 12 #fcfcfc #000000 #000000 0 1;
#X obj 719 276 spigot;
#X obj 717 305 bng 19 250 50 0 empty empty empty 0 -10 0 12 #fcfcfc #000000 #000000;
#X obj 722 222 bng 19 250 50 0 empty empty empty 0 -10 0 12 #fcfcfc #000000 #000000;
#X obj 989 177 r pattern;
#X obj 989 203 random 100;
#X obj 988 255 tgl 19 0 empty empty empty 0 -10 0 12 #fcfcfc #000000 #000000 0 1;
#X obj 954 282 spigot;
#X obj 952 311 bng 19 250 50 0 empty empty empty 0 -10 0 12 #fcfcfc #000000 #000000;
#X obj 957 228 bng 19 250 50 0 empty empty empty 0 -10 0 12 #fcfcfc #000000 #000000;
#X obj 250 169 r B;
#X obj 370 169 r C;
#X obj 488 169 r D;
#X obj 603 171 r E;
#X obj 722 171 r F;
#X obj 839 174 r G;
#X obj 957 177 r H;
#X obj 282 219 < 0;
#X obj 520 219 < 0;
#X obj 402 219 < 0;
#X obj 754 221 < 0;
#X obj 871 224 < 0;
#X obj 989 227 < 0;
#X obj 568 503 *~ 20;
#X msg 560 416 0 \, 1 100;
#X obj 567 562 outlet~;
#X connect 0 0 1 0;
#X connect 1 0 67 0;
#X connect 2 0 69 0;
#X connect 3 0 4 0;
#X connect 4 0 5 0;
#X connect 5 0 6 0;
#X connect 6 0 7 1;
#X connect 7 0 8 0;
#X connect 8 0 68 0;
#X connect 9 0 10 0;
#X connect 10 0 7 0;
#X connect 11 0 12 0;
#X connect 12 0 61 0;
#X connect 13 0 14 1;
#X connect 14 0 15 0;
#X connect 15 0 68 0;
#X connect 16 0 14 0;
#X connect 17 0 18 0;
#X connect 18 0 63 0;
#X connect 19 0 20 1;
#X connect 20 0 21 0;
#X connect 21 0 68 0;
#X connect 22 0 20 0;
#X connect 23 0 24 0;
#X connect 24 0 62 0;
#X connect 25 0 26 1;
#X connect 26 0 27 0;
#X connect 27 0 68 0;
#X connect 28 0 26 0;
#X connect 29 0 30 0;
#X connect 30 0 65 0;
#X connect 31 0 32 1;
#X connect 32 0 33 0;
#X connect 33 0 68 0;
#X connect 34 0 32 0;
#X connect 35 0 36 0;
#X connect 36 0 37 0;
#X connect 37 0 38 0;
#X connect 38 0 39 1;
#X connect 39 0 40 0;
#X connect 40 0 68 0;
#X connect 41 0 39 0;
#X connect 42 0 43 0;
#X connect 43 0 64 0;
#X connect 44 0 45 1;
#X connect 45 0 46 0;
#X connect 46 0 68 0;
#X connect 47 0 45 0;
#X connect 48 0 49 0;
#X connect 49 0 66 0;
#X connect 50 0 51 1;
#X connect 51 0 52 0;
#X connect 52 0 68 0;
#X connect 53 0 51 0;
#X connect 54 0 16 0;
#X connect 55 0 22 0;
#X connect 56 0 28 0;
#X connect 57 0 41 0;
#X connect 58 0 47 0;
#X connect 59 0 34 0;
#X connect 60 0 53 0;
#X connect 61 0 13 0;
#X connect 62 0 25 0;
#X connect 63 0 19 0;
#X connect 64 0 44 0;
#X connect 65 0 31 0;
#X connect 66 0 50 0;
#X connect 67 0 2 0;
#X connect 68 0 0 0;
#X restore 1592 743 pd r2;
#N canvas 4 76 1920 944 s2 0;
#X obj 244 432 osc~;
#X obj 244 381 +~;
#X obj 300 408 *~;
#X obj 247 456 *~ 0.5;
#X obj 300 357 osc~ 104;
#X obj 344 432 osc~;
#X obj 344 381 +~;
#X obj 392 408 *~;
#X obj 343 459 *~ 0.5;
#X obj 392 357 osc~;
#X floatatom 392 307 5 0 0 0 - - - 0;
#X floatatom 347 307 5 0 0 0 - - - 0;
#X floatatom 434 307 5 0 0 0 - - - 0;
#X floatatom 245 307 5 0 0 0 - - - 0;
#X floatatom 300 307 5 0 0 0 - - - 0;
#X msg 203 278 0;
#X msg 383 280 0 \, 207;
#X msg 536 278 0 \, 800;
#X obj 191 200 inlet;
#X obj 254 202 inlet;
#X obj 310 205 inlet;
#X obj 382 215 inlet;
#X obj 470 217 inlet;
#X obj 537 215 inlet;
#X obj 234 522 outlet~;
#X obj 338 526 outlet~;
#X msg 248 278 0 \, 100;
#X msg 316 280 0 \, 3450;
#X msg 453 279 0 \, -69;
#X connect 0 0 3 0;
#X connect 1 0 0 0;
#X connect 2 0 1 1;
#X connect 3 0 24 0;
#X connect 4 0 2 0;
#X connect 5 0 8 0;
#X connect 6 0 5 0;
#X connect 7 0 6 1;
#X connect 8 0 25 0;
#X connect 9 0 7 0;
#X connect 10 0 9 0;
#X connect 11 0 6 0;
#X connect 12 0 7 1;
#X connect 13 0 1 0;
#X connect 14 0 2 1;
#X connect 15 0 13 0;
#X connect 15 0 14 0;
#X connect 15 0 11 0;
#X connect 15 0 12 0;
#X connect 15 0 10 0;
#X connect 16 0 11 0;
#X connect 17 0 12 0;
#X connect 18 0 15 0;
#X connect 19 0 26 0;
#X connect 20 0 27 0;
#X connect 21 0 16 0;
#X connect 22 0 28 0;
#X connect 23 0 17 0;
#X connect 26 0 13 0;
#X connect 27 0 14 0;
#X connect 28 0 10 0;
#X restore 490 285 pd s2;
#X f 40;
#X obj 566 337 dac~;
#X obj 424 283 r OFF;
#X obj 99 55 random 100;
#X obj 99 79 < 100;
#X obj 98 107 tgl 19 0 empty empty empty 0 -10 0 12 #fcfcfc #000000 #000000 0 1;
#X obj 64 134 spigot;
#X obj 62 163 bng 19 250 50 0 empty empty empty 0 -10 0 12 #fcfcfc #000000 #000000;
#X obj 266 62 random 100;
#X obj 265 114 tgl 19 0 empty empty empty 0 -10 0 12 #fcfcfc #000000 #000000 0 1;
#X obj 231 141 spigot;
#X obj 229 170 bng 19 250 50 0 empty empty empty 0 -10 0 12 #fcfcfc #000000 #000000;
#X obj 396 66 random 100;
#X obj 396 90 < 100;
#X obj 395 118 tgl 19 0 empty empty empty 0 -10 0 12 #fcfcfc #000000 #000000 0 1;
#X obj 361 145 spigot;
#X obj 359 174 bng 19 250 50 0 empty empty empty 0 -10 0 12 #fcfcfc #000000 #000000;
#X obj 525 27 random 100;
#X obj 538 74 tgl 19 0 empty empty empty 0 -10 0 12 #fcfcfc #000000 #000000 0 1;
#X obj 476 147 spigot;
#X obj 474 176 bng 19 250 50 0 empty empty empty 0 -10 0 12 #fcfcfc #000000 #000000;
#X obj 654 70 random 100;
#X obj 654 94 < 100;
#X obj 653 122 tgl 19 0 empty empty empty 0 -10 0 12 #fcfcfc #000000 #000000 0 1;
#X obj 619 149 spigot;
#X obj 617 178 bng 19 250 50 0 empty empty empty 0 -10 0 12 #fcfcfc #000000 #000000;
#X obj 266 86 < 100;
#X obj 537 50 < 100;
#X obj 476 48 r D;
#X obj 781 71 random 100;
#X obj 780 123 tgl 19 0 empty empty empty 0 -10 0 12 #fcfcfc #000000 #000000 0 1;
#X obj 746 150 spigot;
#X obj 744 179 bng 19 250 50 0 empty empty empty 0 -10 0 12 #fcfcfc #000000 #000000;
#X obj 781 95 < 50;
#X obj 655 8 r pattern;
#X obj 785 13 r pattern;
#X obj 935 -2 key;
#X obj 935 21 sel 101;
#X obj 178 432 key;
#X obj 179 463 sel 98;
#X obj 253 523 metro 800;
#X obj 529 2 r pattern;
#X obj 505 51 tgl 19 0 empty empty empty 0 -10 0 12 #fcfcfc #000000 #000000 0 1;
#X obj 390 10 r pattern;
#X obj 262 2 r pattern;
#X obj 90 -5 r pattern;
#X obj 476 100 spigot;
#X obj 477 123 bng 19 250 50 0 empty empty empty 0 -10 0 12 #fcfcfc #000000 #000000;
#X obj 372 44 tgl 19 0 empty empty empty 0 -10 0 12 #fcfcfc #000000 #000000 0 1;
#X obj 343 93 spigot;
#X obj 344 116 bng 19 250 50 0 empty empty empty 0 -10 0 12 #fcfcfc #000000 #000000;
#X obj 343 41 r C;
#X obj 631 40 tgl 19 0 empty empty empty 0 -10 0 12 #fcfcfc #000000 #000000 0 1;
#X obj 602 89 spigot;
#X obj 603 112 bng 19 250 50 0 empty empty empty 0 -10 0 12 #fcfcfc #000000 #000000;
#X obj 602 37 r F;
#X obj 758 49 tgl 19 0 empty empty empty 0 -10 0 12 #fcfcfc #000000 #000000 0 1;
#X obj 729 98 spigot;
#X obj 730 121 bng 19 250 50 0 empty empty empty 0 -10 0 12 #fcfcfc #000000 #000000;
#X obj 729 46 r G;
#X obj 236 35 tgl 19 0 empty empty empty 0 -10 0 12 #fcfcfc #000000 #000000 0 1;
#X obj 207 84 spigot;
#X obj 208 107 bng 19 250 50 0 empty empty empty 0 -10 0 12 #fcfcfc #000000 #000000;
#X obj 207 32 r B;
#X obj 62 27 tgl 19 0 empty empty empty 0 -10 0 12 #fcfcfc #000000 #000000 0 1;
#X obj 33 76 spigot;
#X obj 34 99 bng 19 250 50 0 empty empty empty 0 -10 0 12 #fcfcfc #000000 #000000;
#X obj 33 24 r A;
#X msg 496 693 0 \, 1 300;
#X obj 172 310 s s2;
#N canvas -129 305 1920 944 s3 0;
#X obj 833 121 inlet;
#X obj 334 258 osc~ 200;
#X obj 615 259 osc~ 221;
#X obj 374 430 *~ 0.5;
#X obj 705 258 osc~ 400;
#X obj 648 349 *~ 0.5;
#X obj 474 400 *~ 2;
#X obj 529 258 osc~ 500;
#X obj 436 263 osc~ 400;
#X obj 1043 26 r pattern;
#X obj 1038 82 random 550;
#X obj 1040 110 > 200;
#X obj 1034 55 bng 19 250 50 0 empty empty empty 0 -10 0 12 #fcfcfc #000000 #000000;
#X obj 1038 153 random 1;
#X obj 945 183 sel 0;
#X obj 1106 183 sel 1;
#X obj 979 264 osc~ 600;
#X obj 878 261 osc~ 400;
#X obj 1088 267 osc~ 801;
#X obj 882 453 *~ 0.5;
#X obj 572 386 +~ 20;
#X obj 945 213 + 50;
#X obj 1106 216 - 27;
#X obj 1011 426 +~ 55;
#X connect 0 0 4 0;
#X connect 0 0 8 0;
#X connect 0 0 7 0;
#X connect 0 0 2 0;
#X connect 0 0 1 0;
#X connect 0 0 16 0;
#X connect 0 0 17 0;
#X connect 0 0 18 0;
#X connect 1 0 3 0;
#X connect 2 0 5 0;
#X connect 4 0 5 0;
#X connect 5 0 20 0;
#X connect 6 0 3 0;
#X connect 7 0 20 0;
#X connect 8 0 6 0;
#X connect 9 0 12 0;
#X connect 10 0 11 0;
#X connect 11 0 13 0;
#X connect 12 0 10 0;
#X connect 13 0 14 0;
#X connect 13 0 15 0;
#X connect 14 0 21 0;
#X connect 15 0 22 0;
#X connect 16 0 23 0;
#X connect 17 0 19 0;
#X connect 18 0 23 0;
#X connect 20 0 6 0;
#X connect 21 0 16 0;
#X connect 21 0 18 0;
#X connect 21 0 17 0;
#X connect 22 0 16 0;
#X connect 22 0 18 0;
#X connect 22 0 17 0;
#X connect 23 0 19 0;
#X restore 1831 644 pd s3;
#X obj 1808 570 sel 102;
#X obj 1793 526 key;
#X obj 1822 605 tgl 19 0 empty empty empty 0 -10 0 12 #fcfcfc #000000 #000000 0 1;
#X connect 0 0 169 0;
#X connect 1 0 6 0;
#X connect 2 0 6 1;
#X connect 3 0 20 0;
#X connect 4 0 19 0;
#X connect 4 0 18 0;
#X connect 4 0 17 0;
#X connect 4 0 16 0;
#X connect 4 0 15 0;
#X connect 4 0 14 0;
#X connect 4 0 13 0;
#X connect 4 0 12 0;
#X connect 6 0 2 0;
#X connect 6 0 21 0;
#X connect 7 0 6 0;
#X connect 8 0 7 0;
#X connect 9 0 8 0;
#X connect 10 0 9 0;
#X connect 10 0 55 0;
#X connect 11 0 8 0;
#X connect 12 0 22 0;
#X connect 12 1 13 0;
#X connect 13 0 23 0;
#X connect 14 0 24 0;
#X connect 15 0 25 0;
#X connect 16 0 26 0;
#X connect 17 0 27 0;
#X connect 18 0 28 0;
#X connect 19 0 29 0;
#X connect 20 0 4 0;
#X connect 21 0 3 0;
#X connect 21 0 80 0;
#X connect 22 0 30 0;
#X connect 23 0 31 0;
#X connect 24 0 32 0;
#X connect 25 0 33 0;
#X connect 26 0 34 0;
#X connect 27 0 35 0;
#X connect 28 0 36 0;
#X connect 29 0 37 0;
#X connect 42 0 43 0;
#X connect 47 0 44 0;
#X connect 48 0 38 0;
#X connect 49 0 39 0;
#X connect 50 0 40 0;
#X connect 51 0 41 0;
#X connect 52 0 46 0;
#X connect 53 0 45 0;
#X connect 54 0 10 0;
#X connect 55 0 1 0;
#X connect 56 0 57 0;
#X connect 57 0 58 0;
#X connect 58 0 59 0;
#X connect 59 0 60 0;
#X connect 59 0 60 1;
#X connect 61 0 62 0;
#X connect 62 0 65 0;
#X connect 63 0 64 0;
#X connect 63 0 64 1;
#X connect 65 0 63 0;
#X connect 67 0 68 0;
#X connect 68 0 69 0;
#X connect 69 0 70 0;
#X connect 70 0 71 0;
#X connect 70 0 71 1;
#X connect 72 0 73 0;
#X connect 73 0 74 0;
#X connect 74 0 75 0;
#X connect 76 0 72 0;
#X connect 77 0 67 0;
#X connect 78 0 56 0;
#X connect 80 0 76 0;
#X connect 81 0 82 0;
#X connect 82 0 85 0;
#X connect 83 0 87 0;
#X connect 83 0 87 1;
#X connect 84 0 88 0;
#X connect 85 0 83 0;
#X connect 86 0 156 0;
#X connect 87 0 86 1;
#X connect 88 0 86 0;
#X connect 90 0 84 0;
#X connect 91 0 82 1;
#X connect 92 0 93 0;
#X connect 93 0 94 0;
#X connect 94 0 95 0;
#X connect 95 0 96 1;
#X connect 96 0 97 0;
#X connect 97 0 81 0;
#X connect 98 0 99 0;
#X connect 99 0 96 0;
#X connect 100 0 101 0;
#X connect 101 0 160 0;
#X connect 102 0 103 1;
#X connect 103 0 104 0;
#X connect 104 0 81 0;
#X connect 105 0 103 0;
#X connect 106 0 107 0;
#X connect 107 0 157 0;
#X connect 108 0 109 1;
#X connect 109 0 110 0;
#X connect 110 0 81 0;
#X connect 111 0 109 0;
#X connect 112 0 113 0;
#X connect 113 0 114 0;
#X connect 114 0 115 0;
#X connect 115 0 116 1;
#X connect 116 0 117 0;
#X connect 117 0 81 0;
#X connect 118 0 116 0;
#X connect 119 0 120 0;
#X connect 120 0 121 0;
#X connect 121 0 122 0;
#X connect 122 0 123 1;
#X connect 123 0 124 0;
#X connect 124 0 81 0;
#X connect 125 0 123 0;
#X connect 126 0 127 0;
#X connect 127 0 158 0;
#X connect 128 0 129 1;
#X connect 129 0 130 0;
#X connect 130 0 81 0;
#X connect 131 0 129 0;
#X connect 132 0 133 0;
#X connect 133 0 159 0;
#X connect 134 0 135 1;
#X connect 135 0 136 0;
#X connect 136 0 81 0;
#X connect 137 0 135 0;
#X connect 138 0 139 0;
#X connect 139 0 140 0;
#X connect 140 0 141 0;
#X connect 141 0 142 1;
#X connect 142 0 143 0;
#X connect 143 0 81 0;
#X connect 144 0 142 0;
#X connect 145 0 105 0;
#X connect 146 0 111 0;
#X connect 147 0 118 0;
#X connect 148 0 131 0;
#X connect 149 0 137 0;
#X connect 150 0 125 0;
#X connect 151 0 144 0;
#X connect 152 0 153 0;
#X connect 153 0 84 0;
#X connect 154 0 90 0;
#X connect 155 0 154 0;
#X connect 156 0 89 0;
#X connect 156 0 89 1;
#X connect 157 0 108 0;
#X connect 158 0 128 0;
#X connect 159 0 134 0;
#X connect 160 0 102 0;
#X connect 161 0 169 1;
#X connect 161 0 169 2;
#X connect 161 0 169 3;
#X connect 161 0 169 4;
#X connect 161 0 169 5;
#X connect 162 0 169 0;
#X connect 163 0 164 1;
#X connect 164 0 163 0;
#X connect 164 0 165 0;
#X connect 165 0 161 0;
#X connect 165 0 162 0;
#X connect 166 0 164 0;
#X connect 167 0 168 0;
#X connect 168 0 212 0;
#X connect 169 0 5 0;
#X connect 169 0 5 1;
#X connect 169 1 5 0;
#X connect 169 1 5 1;
#X connect 170 0 79 0;
#X connect 170 0 79 1;
#X connect 171 0 66 0;
#X connect 171 0 66 1;
#X connect 172 0 173 0;
#X connect 172 0 173 1;
#X connect 172 1 173 0;
#X connect 172 1 173 1;
#X connect 174 0 172 0;
#X connect 175 0 176 0;
#X connect 176 0 177 0;
#X connect 177 0 178 1;
#X connect 178 0 179 0;
#X connect 179 0 172 1;
#X connect 179 0 172 2;
#X connect 179 0 172 3;
#X connect 179 0 172 4;
#X connect 179 0 172 5;
#X connect 179 0 241 0;
#X connect 180 0 198 0;
#X connect 181 0 182 1;
#X connect 182 0 183 0;
#X connect 183 0 172 0;
#X connect 183 0 241 0;
#X connect 184 0 185 0;
#X connect 185 0 186 0;
#X connect 186 0 187 1;
#X connect 187 0 188 0;
#X connect 188 0 172 1;
#X connect 188 0 172 2;
#X connect 188 0 172 3;
#X connect 188 0 172 4;
#X connect 188 0 172 5;
#X connect 188 0 241 0;
#X connect 189 0 199 0;
#X connect 190 0 191 1;
#X connect 191 0 192 0;
#X connect 192 0 172 0;
#X connect 192 0 241 0;
#X connect 193 0 194 0;
#X connect 194 0 195 0;
#X connect 195 0 196 1;
#X connect 196 0 197 0;
#X connect 197 0 172 1;
#X connect 197 0 172 2;
#X connect 197 0 172 3;
#X connect 197 0 172 4;
#X connect 197 0 172 5;
#X connect 197 0 241 0;
#X connect 198 0 181 0;
#X connect 199 0 190 0;
#X connect 200 0 218 0;
#X connect 201 0 205 0;
#X connect 202 0 203 1;
#X connect 203 0 204 0;
#X connect 204 0 172 0;
#X connect 204 0 241 0;
#X connect 205 0 202 0;
#X connect 206 0 193 0;
#X connect 207 0 201 0;
#X connect 208 0 209 0;
#X connect 209 0 214 0;
#X connect 209 0 220 0;
#X connect 209 0 224 0;
#X connect 209 0 228 0;
#X connect 209 0 232 0;
#X connect 209 0 236 0;
#X connect 210 0 211 0;
#X connect 211 0 168 0;
#X connect 212 0 166 0;
#X connect 213 0 189 0;
#X connect 214 0 218 1;
#X connect 215 0 184 0;
#X connect 216 0 180 0;
#X connect 217 0 175 0;
#X connect 218 0 219 0;
#X connect 219 0 191 0;
#X connect 220 0 221 1;
#X connect 221 0 222 0;
#X connect 222 0 187 0;
#X connect 223 0 221 0;
#X connect 224 0 225 1;
#X connect 225 0 226 0;
#X connect 226 0 196 0;
#X connect 227 0 225 0;
#X connect 228 0 229 1;
#X connect 229 0 230 0;
#X connect 230 0 203 0;
#X connect 231 0 229 0;
#X connect 232 0 233 1;
#X connect 233 0 234 0;
#X connect 234 0 182 0;
#X connect 235 0 233 0;
#X connect 236 0 237 1;
#X connect 237 0 238 0;
#X connect 238 0 178 0;
#X connect 239 0 237 0;
#X connect 240 0 61 0;
#X connect 243 0 245 0;
#X connect 244 0 243 0;
#X connect 245 0 242 0;
