#N canvas 968 40 956 931 12;
#X declare -lib Gem;
#X obj 374 62 declare -lib Gem;
#X obj 666 261 gemwin;
#X msg 374 86 create \, 1;
#X msg 476 115 0 \, destroy;
#X obj 134 97 s ON;
#X obj 134 62 tgl 30 0 empty empty empty 0 -10 0 12 #fcfcfc #000000 #000000 0 1;
#X obj 118 363 dac~;
#X obj 185 97 s OFF;
#X obj 185 62 tgl 30 0 empty empty empty 0 -10 0 12 #fcfcfc #000000 #000000 0 1;
#X obj 1441 261 colorRGB;
#X obj 1442 151 gemhead;
#X obj 1447 504 sphere;
#X obj 1440 424 rotateXYZ, f 10;
#X obj 1442 339 scaleXYZ;
#X msg 1385 72 draw point;
#X obj 1379 -6 loadbang;
#X obj 1688 163 metro 100;
#X obj 1688 139 tgl 19 0 empty empty empty 0 -10 0 12 #fcfcfc #000000 #000000 0 1;
#X obj 1688 115 r ON;
#X obj 1529 199 r ON;
#X obj 1529 151 r ON;
#X msg 1537 261 2;
#X obj 1647 339 int;
#X floatatom 1579 384 5 0 0 0 - - - 0;
#X obj 1682 339 + 10;
#X obj 1579 360 % 360;
#X msg 1588 467 4;
#X obj 1615 424 r ON;
#X obj 1662 666 int;
#X floatatom 1591 692 5 0 0 0 - - - 0;
#X obj 1697 666 + 10;
#X obj 1603 664 % 360;
#X obj 1642 758 r OFF;
#X msg 1697 690 0;
#X obj 1669 587 metro 200;
#X msg 1529 175 0;
#X msg 1581 175 0;
#X msg 1495 175 50;
#X msg 1615 448 400;
#X obj 1463 87 r ON;
#X msg 579 115 dimen 900 1000;
#X obj 1022 276 bng 15 250 50 0 empty empty empty 17 7 0 10 #fcfcfc #000000 #000000;
#X symbolatom 923 306 15 0 0 0 - - - 0;
#X msg 923 251 set point;
#X obj 923 227 loadbang;
#X obj 1222 277 bng 15 250 50 0 empty empty empty 17 7 0 10 #fcfcfc #000000 #000000;
#X symbolatom 1123 307 15 0 0 0 - - - 0;
#X obj 1123 228 loadbang;
#X msg 1123 252 set line;
#X msg 1222 307 -0.5 0 0 1 0 0;
#X obj 1021 421 bng 15 250 50 0 empty empty empty 17 7 0 10 #fcfcfc #000000 #000000;
#X symbolatom 922 451 15 0 0 0 - - - 0;
#X obj 922 372 loadbang;
#X msg 922 396 set sphere;
#X obj 923 331 s domain;
#X obj 1022 330 s arg;
#X obj 1123 330 s domain;
#X obj 1222 329 s arg;
#X obj 922 472 s domain;
#X obj 1021 471 s arg;
#X obj 1222 420 bng 15 250 50 0 empty empty empty 17 7 0 10 #fcfcfc #000000 #000000;
#X symbolatom 1123 450 15 0 0 0 - - - 0;
#X obj 1123 371 loadbang;
#X obj 1123 471 s domain;
#X obj 1222 470 s arg;
#X msg 1123 395 set blob;
#X msg 1222 450 0 0 0 0.5;
#X obj 1020 567 bng 15 250 50 0 empty empty empty 17 7 0 10 #fcfcfc #000000 #000000;
#X symbolatom 921 597 15 0 0 0 - - - 0;
#X obj 921 518 loadbang;
#X obj 921 618 s domain;
#X obj 1020 617 s arg;
#X msg 921 542 set cone;
#X msg 1020 597 0 0.1 0 0 -0.5 0 0.3 0.1;
#X msg 1021 450 0 0 0 0.3 0.05;
#X msg 1022 306 0 0 0;
#X text 1019 193 Velocity Patterns;
#X text 1015 253 Point;
#X text 1216 254 Line;
#X text 1018 362 Sphere;
#X text 1224 358 Blob;
#X text 1013 545 Cone;
#X obj 221 536 sel 97;
#X obj 221 504 key;
#X obj 537 504 key;
#X obj 537 536 sel 122;
#X obj 352 504 key;
#X obj 352 536 sel 99;
#X obj 1055 373 key;
#X obj 1056 404 sel 100;
#X obj 1264 365 key;
#X obj 1265 396 sel 101;
#N canvas -12 31 1920 944 sphere1 0;
#X obj 497 587 colorRGB;
#X obj 498 467 gemhead;
#X obj 372 467 loadbang;
#X msg 375 538 draw line;
#X floatatom 915 632 5 0 0 0 - - - 0;
#X floatatom 698 633 5 0 0 0 - - - 0;
#X floatatom 842 633 5 0 0 0 - - - 0;
#X obj 503 833 sphere;
#X obj 502 719 rotateXYZ;
#X obj 498 644 scaleXYZ;
#X obj 702 585 snapshot~;
#X obj 702 609 * 360;
#X obj 842 585 snapshot~;
#X obj 842 609 * 360;
#X obj 916 561 osc~ 0.25;
#X obj 916 585 snapshot~;
#X obj 916 609 * 360;
#X obj 778 561 metro 50;
#X obj 815 448 tgl 19 0 empty empty empty 0 -10 0 12 #fcfcfc #000000 #000000 0 1;
#X obj 842 561 osc~ 0.2;
#X obj 702 561 osc~ 0.7;
#X obj 815 424 r ON;
#X floatatom 123 743 5 0 0 0 - - - 0;
#X obj 123 719 line;
#X msg 184 633 2.5 200;
#X msg 65 644 0.5 10;
#X floatatom 42 538 5 0 0 0 - - - 0;
#X obj 132 587 sel 2;
#X obj 20 587 sel 0;
#X obj 88 609 bng 19 250 50 0 empty empty empty 0 -10 0 12 #fcfcfc #000000 #000000;
#X obj 184 609 delay 10;
#X obj 48 448 metro 800;
#X obj 52 504 random 3;
#X obj 48 424 r ON;
#X obj 728 758 int;
#X floatatom 660 801 5 0 0 0 - - - 0;
#X obj 763 758 + 10;
#X obj 884 716 metro 200;
#X obj 884 692 r ON;
#X obj 660 777 % 180;
#X obj 481 406 r ON;
#X obj 630 438 loadbang;
#X msg 536 541 1;
#X msg 585 540 0;
#X msg 644 545 1;
#X obj 489 441 tgl 19 0 empty empty empty 0 -10 0 12 #fcfcfc #000000 #000000 0 1;
#X obj 435 340 inlet;
#X connect 0 0 9 0;
#X connect 1 0 0 0;
#X connect 2 0 3 0;
#X connect 3 0 7 0;
#X connect 4 0 8 2;
#X connect 5 0 8 3;
#X connect 6 0 8 1;
#X connect 8 0 7 0;
#X connect 9 0 8 0;
#X connect 10 0 11 0;
#X connect 11 0 5 0;
#X connect 12 0 13 0;
#X connect 13 0 6 0;
#X connect 14 0 15 0;
#X connect 15 0 16 0;
#X connect 16 0 4 0;
#X connect 17 0 12 0;
#X connect 17 0 10 0;
#X connect 17 0 15 0;
#X connect 18 0 17 0;
#X connect 19 0 12 0;
#X connect 20 0 10 0;
#X connect 21 0 18 0;
#X connect 22 0 9 1;
#X connect 22 0 9 2;
#X connect 22 0 9 3;
#X connect 23 0 22 0;
#X connect 24 0 23 0;
#X connect 25 0 23 0;
#X connect 26 0 27 0;
#X connect 26 0 28 0;
#X connect 27 0 29 0;
#X connect 28 0 29 0;
#X connect 29 0 30 0;
#X connect 29 0 25 0;
#X connect 30 0 24 0;
#X connect 31 0 32 0;
#X connect 32 0 26 0;
#X connect 33 0 31 0;
#X connect 34 0 36 0;
#X connect 34 0 39 0;
#X connect 35 0 7 2;
#X connect 36 0 34 1;
#X connect 37 0 34 0;
#X connect 38 0 37 0;
#X connect 39 0 35 0;
#X connect 40 0 45 0;
#X connect 41 0 42 0;
#X connect 41 0 43 0;
#X connect 41 0 44 0;
#X connect 42 0 0 1;
#X connect 43 0 0 2;
#X connect 44 0 0 3;
#X connect 45 0 1 0;
#X connect 46 0 45 0;
#X restore 221 568 pd sphere1;
#N canvas 76 76 1920 944 cubes1 0;
#X msg 911 261 draw line;
#X floatatom 1108 261 5 0 0 0 - - - 0;
#X obj 1027 378 gemhead;
#X obj 1017 142 r ON;
#X obj 1159 205 r OFF;
#X msg 1157 228 0;
#X obj 1145 562 rotateXYZ;
#X floatatom 1334 502 5 0 0 0 - - - 0;
#X floatatom 1121 502 5 0 0 0 - - - 0;
#X floatatom 1261 503 5 0 0 0 - - - 0;
#X obj 1121 455 snapshot~;
#X obj 1121 479 * 360;
#X obj 1261 455 snapshot~;
#X obj 1261 479 * 360;
#X obj 1335 431 osc~ 0.25;
#X obj 1335 455 snapshot~;
#X obj 1335 479 * 360;
#X obj 1197 431 metro 50;
#X obj 1261 431 osc~ 0.2;
#X obj 1121 431 osc~ 0.7;
#X obj 1171 737 rotateXYZ;
#X floatatom 1360 677 5 0 0 0 - - - 0;
#X floatatom 1147 677 5 0 0 0 - - - 0;
#X floatatom 1287 678 5 0 0 0 - - - 0;
#X obj 1147 630 snapshot~;
#X obj 1147 654 * 360;
#X obj 1287 630 snapshot~;
#X obj 1287 654 * 360;
#X obj 1361 606 osc~ 0.25;
#X obj 1361 630 snapshot~;
#X obj 1361 654 * 360;
#X obj 1223 606 metro 50;
#X obj 1287 606 osc~ 0.2;
#X obj 1147 606 osc~ 0.7;
#X obj 923 205 loadbang;
#X obj 1058 668 cube;
#X msg 1072 200 1.8;
#X obj 1008 241 tgl 19 0 empty empty empty 0 -10 0 12 #fcfcfc #000000 #000000 0 1;
#X obj 969 100 inlet;
#X connect 0 0 35 0;
#X connect 1 0 35 1;
#X connect 2 0 6 0;
#X connect 2 0 20 0;
#X connect 3 0 17 0;
#X connect 3 0 31 0;
#X connect 3 0 36 0;
#X connect 3 0 37 0;
#X connect 4 0 5 0;
#X connect 5 0 1 0;
#X connect 6 0 35 0;
#X connect 7 0 6 3;
#X connect 8 0 6 1;
#X connect 9 0 6 2;
#X connect 10 0 11 0;
#X connect 11 0 8 0;
#X connect 12 0 13 0;
#X connect 13 0 9 0;
#X connect 14 0 15 0;
#X connect 15 0 16 0;
#X connect 16 0 7 0;
#X connect 17 0 12 0;
#X connect 17 0 10 0;
#X connect 17 0 15 0;
#X connect 18 0 12 0;
#X connect 19 0 10 0;
#X connect 20 0 35 0;
#X connect 21 0 20 3;
#X connect 22 0 20 1;
#X connect 23 0 20 2;
#X connect 24 0 25 0;
#X connect 25 0 22 0;
#X connect 26 0 27 0;
#X connect 27 0 23 0;
#X connect 28 0 29 0;
#X connect 29 0 30 0;
#X connect 30 0 21 0;
#X connect 31 0 26 0;
#X connect 31 0 24 0;
#X connect 31 0 29 0;
#X connect 32 0 26 0;
#X connect 33 0 24 0;
#X connect 34 0 0 0;
#X connect 36 0 1 0;
#X connect 37 0 2 0;
#X connect 38 0 37 0;
#X restore 537 568 pd cubes1;
#X text 154 600 TOUCHE 'a';
#N canvas -27 101 1920 944 particules1 0;
#X obj 507 496 part_color;
#X obj 507 247 part_head;
#X obj 506 187 tgl 15 0 empty empty empty 0 -6 0 8 #fcfcfc #000000 #000000 0 1;
#X obj 507 528 part_render;
#X obj 608 445 loadbang;
#X obj 507 206 gemhead;
#X obj 354 653 loadbang;
#X obj 507 420 part_killold 10;
#X msg 506 163 0;
#X obj 663 362 part_velocity;
#X obj 700 336 r domain;
#X obj 760 336 r arg;
#X obj 506 141 r ON;
#X msg 535 471 1 0 1;
#X obj 493 669 sphere;
#X msg 578 208 speed 0.1;
#X obj 507 272 part_size 0.2;
#X msg 608 471 1 0 0;
#X obj 395 111 inlet;
#X obj 508 595 rotateXYZ;
#X obj 808 511 r s2;
#X obj 776 549 random 100;
#X obj 865 549 random 100;
#X floatatom 684 577 5 0 0 0 - - - 0;
#X floatatom 776 577 5 0 0 0 - - - 0;
#X floatatom 865 577 5 0 0 0 - - - 0;
#X msg 354 685 draw line;
#X obj 684 549 random 4;
#X obj 507 298 part_source 1;
#X connect 0 0 3 0;
#X connect 1 0 16 0;
#X connect 2 0 5 0;
#X connect 3 0 19 0;
#X connect 4 0 17 0;
#X connect 4 0 13 0;
#X connect 5 0 1 0;
#X connect 6 0 26 0;
#X connect 7 0 0 0;
#X connect 8 0 2 0;
#X connect 9 0 7 0;
#X connect 10 0 9 1;
#X connect 11 0 9 2;
#X connect 12 0 8 0;
#X connect 13 0 0 1;
#X connect 15 0 1 0;
#X connect 16 0 28 0;
#X connect 17 0 0 2;
#X connect 18 0 2 0;
#X connect 19 0 14 0;
#X connect 20 0 21 0;
#X connect 20 0 22 0;
#X connect 20 0 27 0;
#X connect 21 0 24 0;
#X connect 22 0 25 0;
#X connect 23 0 19 1;
#X connect 23 0 16 1;
#X connect 24 0 19 2;
#X connect 25 0 19 3;
#X connect 26 0 14 0;
#X connect 27 0 23 0;
#X connect 28 0 9 0;
#X restore 97 567 pd particules1;
#X text 537 599 TOUCHE 'z';
#N canvas 0 76 1920 944 particules2 0;
#X obj 599 557 part_color;
#X obj 599 308 part_head;
#X obj 598 248 tgl 15 0 empty empty empty 0 -6 0 8 #fcfcfc #000000 #000000 0 1;
#X obj 599 589 part_render;
#X msg 384 688 draw line;
#X msg 452 689 draw fill;
#X obj 700 506 loadbang;
#X msg 700 532 1 1 1;
#X obj 599 267 gemhead;
#X obj 599 481 part_killold 10;
#X msg 598 224 0;
#X obj 755 423 part_velocity;
#X obj 792 397 r domain;
#X obj 598 202 r ON;
#X msg 627 532 1 0 1;
#X obj 574 686 sphere;
#X msg 670 269 speed 0.1;
#X obj 599 359 part_source 50;
#X obj 599 333 part_size 7;
#X obj 524 201 inlet;
#X obj 389 648 loadbang;
#X obj 586 642 rotateXYZ;
#X obj 762 587 int;
#X floatatom 694 632 5 0 0 0 - - - 0;
#X obj 694 608 % 360;
#X obj 797 587 + 1;
#X obj 841 532 r r1;
#X connect 0 0 3 0;
#X connect 1 0 18 0;
#X connect 2 0 8 0;
#X connect 3 0 21 0;
#X connect 4 0 15 0;
#X connect 5 0 15 0;
#X connect 6 0 7 0;
#X connect 6 0 14 0;
#X connect 7 0 0 2;
#X connect 8 0 1 0;
#X connect 9 0 0 0;
#X connect 10 0 2 0;
#X connect 11 0 9 0;
#X connect 12 0 11 1;
#X connect 13 0 10 0;
#X connect 14 0 0 1;
#X connect 16 0 1 0;
#X connect 17 0 11 0;
#X connect 18 0 17 0;
#X connect 19 0 2 0;
#X connect 20 0 4 0;
#X connect 21 0 15 0;
#X connect 22 0 24 0;
#X connect 22 0 25 0;
#X connect 23 0 21 3;
#X connect 24 0 23 0;
#X connect 25 0 22 1;
#X connect 26 0 22 0;
#X restore 352 568 pd particules2;
#X text 352 599 TOUCHE 'c';
#X obj 118 339 receive~ son1;
#X connect 2 0 1 0;
#X connect 3 0 1 0;
#X connect 5 0 4 0;
#X connect 8 0 7 0;
#X connect 9 0 13 0;
#X connect 10 0 9 0;
#X connect 12 0 11 0;
#X connect 13 0 12 0;
#X connect 14 0 11 0;
#X connect 15 0 14 0;
#X connect 16 0 22 0;
#X connect 17 0 16 0;
#X connect 17 0 34 0;
#X connect 18 0 17 0;
#X connect 19 0 21 0;
#X connect 20 0 36 0;
#X connect 20 0 35 0;
#X connect 20 0 37 0;
#X connect 21 0 13 3;
#X connect 21 0 13 2;
#X connect 21 0 13 1;
#X connect 22 0 24 0;
#X connect 22 0 25 0;
#X connect 23 0 12 2;
#X connect 24 0 22 1;
#X connect 25 0 23 0;
#X connect 26 0 11 1;
#X connect 27 0 38 0;
#X connect 27 0 26 0;
#X connect 28 0 30 0;
#X connect 28 0 31 0;
#X connect 29 0 12 1;
#X connect 30 0 28 1;
#X connect 31 0 29 0;
#X connect 32 0 33 0;
#X connect 33 0 28 0;
#X connect 34 0 28 0;
#X connect 35 0 9 2;
#X connect 36 0 9 3;
#X connect 37 0 9 1;
#X connect 38 0 11 2;
#X connect 39 0 10 0;
#X connect 40 0 1 0;
#X connect 41 0 75 0;
#X connect 41 0 42 0;
#X connect 42 0 54 0;
#X connect 43 0 42 0;
#X connect 44 0 43 0;
#X connect 45 0 49 0;
#X connect 45 0 46 0;
#X connect 46 0 56 0;
#X connect 47 0 48 0;
#X connect 48 0 46 0;
#X connect 49 0 57 0;
#X connect 50 0 51 0;
#X connect 50 0 74 0;
#X connect 51 0 58 0;
#X connect 52 0 53 0;
#X connect 53 0 51 0;
#X connect 60 0 66 0;
#X connect 60 0 61 0;
#X connect 61 0 63 0;
#X connect 62 0 65 0;
#X connect 65 0 61 0;
#X connect 66 0 64 0;
#X connect 67 0 68 0;
#X connect 67 0 73 0;
#X connect 68 0 70 0;
#X connect 69 0 72 0;
#X connect 72 0 68 0;
#X connect 73 0 71 0;
#X connect 74 0 59 0;
#X connect 75 0 55 0;
#X connect 82 0 92 0;
#X connect 82 0 95 0;
#X connect 83 0 82 0;
#X connect 84 0 85 0;
#X connect 85 0 93 0;
#X connect 86 0 87 0;
#X connect 87 0 97 0;
#X connect 88 0 89 0;
#X connect 89 0 50 0;
#X connect 90 0 91 0;
#X connect 91 0 60 0;
#X connect 99 0 6 0;
#X connect 99 0 6 1;
