#N canvas 1019 110 767 881 12;
#X declare -lib Gem;
#X obj 91 14 declare -lib Gem;
#X msg 99 69 create \, 1;
#X obj 173 160 gemwin;
#X obj 139 277 gemhead;
#X obj 113 722 spigot;
#X obj 455 352 metro 100;
#X obj 455 390 int;
#X obj 493 391 + 1;
#X floatatom 447 450 5 0 0 0 - - - 0;
#X obj 164 498 rotateXYZ;
#X obj 142 336 t a b;
#X obj 157 583 cube;
#X obj 160 527 colorRGB 1 0 0 1;
#X obj 159 555 alpha;
#X obj 71 375 f;
#X obj 71 423 +;
#X obj 157 607 t a b;
#X obj 235 619 f;
#X obj 238 652 + 1;
#X obj 243 717 mod 4;
#X obj 451 423 % 3;
#X msg 421 71 0 \, destroy;
#X obj 786 229 tgl 30 0 empty empty empty 0 -10 0 12 #c6ffc7 #000000 #000000 0 1;
#X obj 142 311 translateXYZ -2 0 0;
#X msg 256 73 dimen 800 900;
#X obj 67 528 loadbang;
#X msg 49 588 draw line;
#X obj 164 464 translateXYZ 2 0 0;
#X obj 625 309 sel 0;
#X msg 625 333 0;
#X text 608 193 Pour faire agrandir et rétrécir successivement les cubes;
#X text 99 49 Créer écran;
#X text 234 50 dimensionner l'écran;
#X text 417 48 détruire l'écran;
#X msg 336 575 4;
#X obj 786 413 vsl 30 170 0 127 0 0 empty empty empty 0 -9 0 12 #c6ffc7 #000000 #000000 0 1;
#X floatatom 553 569 5 0 0 0 - - - 0;
#X obj 397 660 +;
#X obj 553 592 t b f;
#X text 663 600 Pour modifier le nombre de cubes (4 par défaut);
#X obj 71 399 + 1;
#X connect 1 0 2 0;
#X connect 3 0 23 0;
#X connect 4 0 9 0;
#X connect 5 0 6 0;
#X connect 6 0 7 0;
#X connect 6 0 20 0;
#X connect 7 0 6 1;
#X connect 8 0 27 3;
#X connect 9 0 12 0;
#X connect 10 0 27 0;
#X connect 10 1 14 0;
#X connect 11 0 16 0;
#X connect 12 0 13 0;
#X connect 13 0 11 0;
#X connect 14 0 40 0;
#X connect 15 0 9 1;
#X connect 15 0 9 2;
#X connect 15 0 9 3;
#X connect 16 0 4 0;
#X connect 16 1 17 0;
#X connect 17 0 18 0;
#X connect 18 0 19 0;
#X connect 18 0 17 1;
#X connect 19 0 4 1;
#X connect 20 0 8 0;
#X connect 21 0 2 0;
#X connect 22 0 5 0;
#X connect 22 0 28 0;
#X connect 23 0 10 0;
#X connect 24 0 2 0;
#X connect 25 0 26 0;
#X connect 26 0 11 0;
#X connect 27 0 9 0;
#X connect 28 0 29 0;
#X connect 29 0 27 3;
#X connect 34 0 37 0;
#X connect 35 0 36 0;
#X connect 36 0 38 0;
#X connect 37 0 19 1;
#X connect 38 0 37 0;
#X connect 38 1 37 1;
#X connect 40 0 15 0;
#X connect 40 0 14 1;
